<svg width="18" height="18" viewBox="0 0 18 18" fill="none" xmlns="http://www.w3.org/2000/svg">
<rect width="18" height="18" />
<path fill-rule="evenodd" clip-rule="evenodd" d="M6.74993 5.25004C7.16414 5.25004 7.49993 5.58582 7.49993 6.00004V9.99997C7.49993 10.6903 8.05955 11.25 8.74989 11.25L10.75 11.25C11.1642 11.25 11.4999 11.5858 11.4999 12C11.4999 12.4143 11.1641 12.75 10.7499 12.75L8.74985 12.75C7.2311 12.7499 5.99993 11.5187 5.99993 9.99997V6.00004C5.99993 5.58582 6.33571 5.25004 6.74993 5.25004Z" fill="white"/>
<path fill-rule="evenodd" clip-rule="evenodd" d="M6.00017 2.75C4.20539 2.75 2.75 4.20568 2.75 6.00075V11.9993C2.75 13.7944 4.20526 15.25 6 15.25H12C13.7949 15.25 15.25 13.7949 15.25 12V8.07407C15.25 7.65985 15.5858 7.32407 16 7.32407C16.4142 7.32407 16.75 7.65985 16.75 8.07407V12C16.75 14.6233 14.6234 16.75 12 16.75H6C3.37646 16.75 1.25 14.6224 1.25 11.9993V6.00075C1.25 3.37754 3.37668 1.25 6.00017 1.25H9.99693C10.4111 1.25 10.7469 1.58579 10.7469 2C10.7469 2.41421 10.4111 2.75 9.99693 2.75H6.00017Z" fill="white"/>
<path fill-rule="evenodd" clip-rule="evenodd" d="M14.5 4.5C15.0523 4.5 15.5 4.05228 15.5 3.5C15.5 2.94772 15.0523 2.5 14.5 2.5C13.9477 2.5 13.5 2.94772 13.5 3.5C13.5 4.05228 13.9477 4.5 14.5 4.5ZM14.5 6C15.8807 6 17 4.88071 17 3.5C17 2.11929 15.8807 1 14.5 1C13.1193 1 12 2.11929 12 3.5C12 4.88071 13.1193 6 14.5 6Z" fill="white"/>
</svg>
