<?xml version="1.0" encoding="UTF-8"?>
<svg xmlns="http://www.w3.org/2000/svg" width="130" height="48" viewBox="0 0 130 48" fill="none">
  <path d="M93.5138 5.67069C92.4674 7.5598 90.2298 8.25452 88.5154 7.22279C88.4402 7.17751 88.3672 7.12965 88.2965 7.07939L92.0756 0.256836C92.1527 0.295508 92.2289 0.337439 92.3042 0.382716C94.0186 1.41445 94.5602 3.78158 93.5138 5.67069Z" fill="#191919"></path>
  <path d="M0 27.004V5.06343H4.37948V23.0282H13.2797V27.004H0ZM21.7279 27.3574C20.0891 27.3574 18.667 26.9794 17.4614 26.2236C16.2559 25.4677 15.3235 24.4516 14.6642 23.1754C14.0049 21.8992 13.6753 20.4856 13.6753 18.9346C13.6753 17.3246 14.0191 15.8914 14.7066 14.6348C15.3941 13.3783 16.3218 12.3868 17.4897 11.6603C18.6575 10.9339 19.9761 10.5707 21.4453 10.5707C22.6697 10.5707 23.7528 10.7719 24.6946 11.1744C25.6365 11.5769 26.4323 12.1413 27.0822 12.8678C27.732 13.5942 28.2265 14.4336 28.5655 15.3858C28.9046 16.338 29.0741 17.3737 29.0741 18.4928C29.0741 18.807 29.06 19.1162 29.0317 19.4205C29.0035 19.7248 28.9517 19.985 28.8763 20.2009H17.3201V16.9614H26.4747L24.4686 18.4928C24.657 17.6486 24.6475 16.8976 24.4403 16.2399C24.2331 15.5821 23.8705 15.0618 23.3525 14.679C22.8345 14.2961 22.1988 14.1047 21.4453 14.1047C20.7107 14.1047 20.0797 14.2912 19.5523 14.6643C19.0249 15.0373 18.6293 15.587 18.3656 16.3135C18.1019 17.0399 17.9983 17.9234 18.0548 18.964C17.9794 19.8672 18.083 20.6623 18.3656 21.3495C18.6481 22.0367 19.0814 22.5717 19.6653 22.9546C20.2492 23.3374 20.9556 23.5288 21.7844 23.5288C22.5379 23.5288 23.183 23.3718 23.7198 23.0576C24.2567 22.7435 24.6758 22.3116 24.9772 21.7618L28.3678 23.4405C28.0664 24.2258 27.5907 24.913 26.9409 25.502C26.291 26.091 25.5234 26.5475 24.6381 26.8715C23.7528 27.1954 22.7827 27.3574 21.7279 27.3574ZM30.7129 27.004V10.9241H34.6686V14.841L34.2447 14.1931C34.4708 12.9561 35.017 12.0432 35.8835 11.4542C36.75 10.8652 37.786 10.5707 38.9915 10.5707C40.2724 10.5707 41.3979 10.9093 42.368 11.5867C43.3381 12.2641 43.9455 13.1721 44.1904 14.3109L42.9754 14.4287C43.484 13.1132 44.2092 12.1413 45.1511 11.5131C46.0929 10.8848 47.1948 10.5707 48.4569 10.5707C49.5682 10.5707 50.5524 10.8259 51.4095 11.3364C52.2665 11.8468 52.9399 12.5586 53.4297 13.4715C53.9194 14.3845 54.1643 15.4496 54.1643 16.6669V27.004H49.9261V17.6093C49.9261 16.981 49.8178 16.4411 49.6012 15.9895C49.3846 15.538 49.0785 15.1846 48.6829 14.9293C48.2873 14.6741 47.807 14.5465 47.2419 14.5465C46.6957 14.5465 46.22 14.6741 45.815 14.9293C45.4101 15.1846 45.0993 15.538 44.8826 15.9895C44.666 16.4411 44.5577 16.981 44.5577 17.6093V27.004H40.3195V17.6093C40.3195 16.981 40.2112 16.4411 39.9946 15.9895C39.7779 15.538 39.4719 15.1846 39.0763 14.9293C38.6807 14.6741 38.2004 14.5465 37.6353 14.5465C37.089 14.5465 36.6134 14.6741 36.2084 14.9293C35.8035 15.1846 35.4927 15.538 35.276 15.9895C35.0594 16.4411 34.9511 16.981 34.9511 17.6093V27.004H30.7129ZM56.1139 27.004V10.9241H60.0696V14.841L59.6457 14.1931C59.8718 12.9561 60.418 12.0432 61.2845 11.4542C62.151 10.8652 63.187 10.5707 64.3925 10.5707C65.6734 10.5707 66.7989 10.9093 67.769 11.5867C68.7391 12.2641 69.3465 13.1721 69.5914 14.3109L68.3765 14.4287C68.885 13.1132 69.6102 12.1413 70.5521 11.5131C71.4939 10.8848 72.5958 10.5707 73.8579 10.5707C74.9692 10.5707 75.9534 10.8259 76.8105 11.3364C77.6675 11.8468 78.3409 12.5586 78.8307 13.4715C79.3204 14.3845 79.5653 15.4496 79.5653 16.6669V27.004H75.3271V17.6093C75.3271 16.981 75.2188 16.4411 75.0022 15.9895C74.7856 15.538 74.4795 15.1846 74.0839 14.9293C73.6883 14.6741 73.208 14.5465 72.6429 14.5465C72.0967 14.5465 71.621 14.6741 71.216 14.9293C70.8111 15.1846 70.5003 15.538 70.2836 15.9895C70.067 16.4411 69.9587 16.981 69.9587 17.6093V27.004H65.7205V17.6093C65.7205 16.981 65.6122 16.4411 65.3956 15.9895C65.1789 15.538 64.8729 15.1846 64.4773 14.9293C64.0817 14.6741 63.6014 14.5465 63.0363 14.5465C62.49 14.5465 62.0144 14.6741 61.6094 14.9293C61.2045 15.1846 60.8936 15.538 60.677 15.9895C60.4604 16.4411 60.3521 16.981 60.3521 17.6093V27.004H56.1139ZM89.1719 27.3574C87.6462 27.3574 86.257 26.9942 85.0044 26.2677C83.7517 25.5413 82.7534 24.5449 82.0094 23.2785C81.2653 22.0121 80.8933 20.574 80.8933 18.964C80.8933 17.3344 81.2653 15.8914 82.0094 14.6348C82.7534 13.3783 83.7517 12.3868 85.0044 11.6603C86.257 10.9339 87.6462 10.5707 89.1719 10.5707C90.6977 10.5707 92.0822 10.9339 93.3254 11.6603C94.5686 12.3868 95.5622 13.3783 96.3063 14.6348C97.0503 15.8914 97.4223 17.3344 97.4223 18.964C97.4223 20.574 97.0503 22.0121 96.3063 23.2785C95.5622 24.5449 94.5686 25.5413 93.3254 26.2677C92.0822 26.9942 90.6977 27.3574 89.1719 27.3574ZM89.1719 23.3816C89.9442 23.3816 90.6176 23.1951 91.1921 22.822C91.7666 22.449 92.2187 21.9287 92.5484 21.2612C92.878 20.5936 93.0428 19.8279 93.0428 18.964C93.0428 18.1001 92.878 17.3393 92.5484 16.6816C92.2187 16.0239 91.7666 15.5036 91.1921 15.1207C90.6176 14.7379 89.9442 14.5465 89.1719 14.5465C88.3996 14.5465 87.7215 14.7379 87.1376 15.1207C86.5537 15.5036 86.0969 16.0239 85.7672 16.6816C85.4376 17.3393 85.2728 18.1001 85.2728 18.964C85.2728 19.8279 85.4376 20.5936 85.7672 21.2612C86.0969 21.9287 86.5537 22.449 87.1376 22.822C87.7215 23.1951 88.3996 23.3816 89.1719 23.3816ZM99.0611 27.004V10.9241H103.017V14.1047L102.791 13.3979C103.149 12.4358 103.728 11.7241 104.528 11.2627C105.329 10.8014 106.266 10.5707 107.34 10.5707C108.508 10.5707 109.529 10.8259 110.405 11.3364C111.281 11.8468 111.964 12.5586 112.454 13.4715C112.944 14.3845 113.188 15.4594 113.188 16.6963V27.004H108.95V17.6093C108.95 16.981 108.833 16.4411 108.597 15.9895C108.362 15.538 108.027 15.1846 107.594 14.9293C107.161 14.6741 106.671 14.5465 106.125 14.5465C105.578 14.5465 105.089 14.6741 104.656 14.9293C104.222 15.1846 103.888 15.538 103.652 15.9895C103.417 16.4411 103.299 16.981 103.299 17.6093V27.004H99.0611ZM117.257 33.542C116.805 33.542 116.367 33.5027 115.943 33.4242C115.519 33.3456 115.147 33.218 114.827 33.0413V29.4189C115.091 29.4975 115.402 29.5662 115.76 29.6251C116.118 29.684 116.447 29.7134 116.749 29.7134C117.577 29.7134 118.171 29.5073 118.529 29.095C118.886 28.6827 119.178 28.2115 119.404 27.6813L120.45 25.1781L120.393 28.8594L113.612 10.9241H118.161L122.654 23.6761H120.958L125.451 10.9241H130L123.388 28.506C122.974 29.6251 122.465 30.5577 121.863 31.3037C121.26 32.0498 120.577 32.6094 119.814 32.9824C119.051 33.3555 118.199 33.542 117.257 33.542Z" fill="#191919"></path>
  <path d="M2.712 44.686C2.256 44.686 1.86 44.61 1.524 44.458C1.188 44.306 0.928 44.09 0.744 43.81C0.56 43.522 0.468 43.19 0.468 42.814C0.468 42.454 0.548 42.134 0.708 41.854C0.868 41.566 1.116 41.326 1.452 41.134C1.788 40.942 2.212 40.806 2.724 40.726L4.86 40.378V41.578L3.024 41.89C2.712 41.946 2.48 42.046 2.328 42.19C2.176 42.334 2.1 42.522 2.1 42.754C2.1 42.978 2.184 43.158 2.352 43.294C2.528 43.422 2.744 43.486 3 43.486C3.328 43.486 3.616 43.418 3.864 43.282C4.12 43.138 4.316 42.942 4.452 42.694C4.596 42.446 4.668 42.174 4.668 41.878V40.198C4.668 39.918 4.556 39.686 4.332 39.502C4.116 39.31 3.828 39.214 3.468 39.214C3.132 39.214 2.832 39.306 2.568 39.49C2.312 39.666 2.124 39.902 2.004 40.198L0.72 39.574C0.848 39.23 1.048 38.934 1.32 38.686C1.6 38.43 1.928 38.23 2.304 38.086C2.68 37.942 3.088 37.87 3.528 37.87C4.064 37.87 4.536 37.97 4.944 38.17C5.352 38.362 5.668 38.634 5.892 38.986C6.124 39.33 6.24 39.734 6.24 40.198V44.542H4.752V43.426L5.088 43.402C4.92 43.682 4.72 43.918 4.488 44.11C4.256 44.294 3.992 44.438 3.696 44.542C3.4 44.638 3.072 44.686 2.712 44.686ZM11.2209 47.182C10.7329 47.182 10.2809 47.102 9.86494 46.942C9.44894 46.782 9.08894 46.558 8.78494 46.27C8.48894 45.99 8.27294 45.658 8.13694 45.274L9.60094 44.722C9.69694 45.026 9.88494 45.27 10.1649 45.454C10.4529 45.646 10.8049 45.742 11.2209 45.742C11.5409 45.742 11.8209 45.682 12.0609 45.562C12.3089 45.442 12.5009 45.266 12.6369 45.034C12.7729 44.81 12.8409 44.538 12.8409 44.218V42.73L13.1409 43.09C12.9169 43.482 12.6169 43.778 12.2409 43.978C11.8649 44.178 11.4369 44.278 10.9569 44.278C10.3489 44.278 9.80494 44.138 9.32494 43.858C8.84494 43.578 8.46894 43.194 8.19694 42.706C7.92494 42.218 7.78894 41.67 7.78894 41.062C7.78894 40.446 7.92494 39.898 8.19694 39.418C8.46894 38.938 8.84094 38.562 9.31294 38.29C9.78494 38.01 10.3209 37.87 10.9209 37.87C11.4089 37.87 11.8369 37.974 12.2049 38.182C12.5809 38.382 12.8929 38.674 13.1409 39.058L12.9249 39.454V38.014H14.4129V44.218C14.4129 44.786 14.2729 45.294 13.9929 45.742C13.7209 46.19 13.3449 46.542 12.8649 46.798C12.3929 47.054 11.8449 47.182 11.2209 47.182ZM11.1489 42.826C11.4849 42.826 11.7769 42.754 12.0249 42.61C12.2809 42.458 12.4809 42.25 12.6249 41.986C12.7689 41.722 12.8409 41.418 12.8409 41.074C12.8409 40.738 12.7649 40.438 12.6129 40.174C12.4689 39.902 12.2689 39.69 12.0129 39.538C11.7649 39.386 11.4769 39.31 11.1489 39.31C10.8209 39.31 10.5249 39.386 10.2609 39.538C9.99694 39.69 9.78894 39.902 9.63694 40.174C9.49294 40.438 9.42094 40.738 9.42094 41.074C9.42094 41.41 9.49294 41.71 9.63694 41.974C9.78894 42.238 9.99294 42.446 10.2489 42.598C10.5129 42.75 10.8129 42.826 11.1489 42.826ZM19.3371 44.686C18.6651 44.686 18.0771 44.534 17.5731 44.23C17.0691 43.926 16.6771 43.514 16.3971 42.994C16.1171 42.474 15.9771 41.898 15.9771 41.266C15.9771 40.61 16.1171 40.03 16.3971 39.526C16.6851 39.014 17.0731 38.61 17.5611 38.314C18.0571 38.018 18.6091 37.87 19.2171 37.87C19.7291 37.87 20.1771 37.954 20.5611 38.122C20.9531 38.29 21.2851 38.522 21.5571 38.818C21.8291 39.114 22.0371 39.454 22.1811 39.838C22.3251 40.214 22.3971 40.622 22.3971 41.062C22.3971 41.174 22.3891 41.29 22.3731 41.41C22.3651 41.53 22.3451 41.634 22.3131 41.722H17.2731V40.522H21.4251L20.6811 41.086C20.7531 40.718 20.7331 40.39 20.6211 40.102C20.5171 39.814 20.3411 39.586 20.0931 39.418C19.8531 39.25 19.5611 39.166 19.2171 39.166C18.8891 39.166 18.5971 39.25 18.3411 39.418C18.0851 39.578 17.8891 39.818 17.7531 40.138C17.6251 40.45 17.5771 40.83 17.6091 41.278C17.5771 41.678 17.6291 42.034 17.7651 42.346C17.9091 42.65 18.1171 42.886 18.3891 43.054C18.6691 43.222 18.9891 43.306 19.3491 43.306C19.7091 43.306 20.0131 43.23 20.2611 43.078C20.5171 42.926 20.7171 42.722 20.8611 42.466L22.1331 43.09C22.0051 43.402 21.8051 43.678 21.5331 43.918C21.2611 44.158 20.9371 44.346 20.5611 44.482C20.1931 44.618 19.7851 44.686 19.3371 44.686ZM23.9487 44.542V38.014H25.4247V39.298L25.3047 39.07C25.4567 38.678 25.7047 38.382 26.0487 38.182C26.4007 37.974 26.8087 37.87 27.2727 37.87C27.7527 37.87 28.1767 37.974 28.5447 38.182C28.9207 38.39 29.2127 38.682 29.4207 39.058C29.6287 39.426 29.7327 39.854 29.7327 40.342V44.542H28.1607V40.714C28.1607 40.426 28.1047 40.178 27.9927 39.97C27.8807 39.762 27.7247 39.602 27.5247 39.49C27.3327 39.37 27.1047 39.31 26.8407 39.31C26.5847 39.31 26.3567 39.37 26.1567 39.49C25.9567 39.602 25.8007 39.762 25.6887 39.97C25.5767 40.178 25.5207 40.426 25.5207 40.714V44.542H23.9487ZM34.566 44.686C33.918 44.686 33.334 44.538 32.814 44.242C32.302 43.938 31.898 43.53 31.602 43.018C31.306 42.498 31.158 41.914 31.158 41.266C31.158 40.618 31.306 40.038 31.602 39.526C31.898 39.014 32.302 38.61 32.814 38.314C33.334 38.018 33.918 37.87 34.566 37.87C35.03 37.87 35.462 37.954 35.862 38.122C36.262 38.282 36.606 38.506 36.894 38.794C37.19 39.074 37.402 39.41 37.53 39.802L36.15 40.402C36.03 40.074 35.826 39.81 35.538 39.61C35.258 39.41 34.934 39.31 34.566 39.31C34.222 39.31 33.914 39.394 33.642 39.562C33.378 39.73 33.17 39.962 33.018 40.258C32.866 40.554 32.79 40.894 32.79 41.278C32.79 41.662 32.866 42.002 33.018 42.298C33.17 42.594 33.378 42.826 33.642 42.994C33.914 43.162 34.222 43.246 34.566 43.246C34.942 43.246 35.27 43.146 35.55 42.946C35.83 42.746 36.03 42.478 36.15 42.142L37.53 42.766C37.402 43.134 37.194 43.466 36.906 43.762C36.618 44.05 36.274 44.278 35.874 44.446C35.474 44.606 35.038 44.686 34.566 44.686ZM39.8748 47.194C39.6988 47.194 39.5268 47.178 39.3588 47.146C39.1908 47.122 39.0388 47.078 38.9028 47.014V45.694C39.0068 45.718 39.1308 45.742 39.2748 45.766C39.4268 45.79 39.5668 45.802 39.6948 45.802C40.0548 45.802 40.3148 45.718 40.4748 45.55C40.6428 45.382 40.7908 45.162 40.9188 44.89L41.3508 43.882L41.3268 45.202L38.4828 38.014H40.1748L42.1668 43.318H41.5668L43.5468 38.014H45.2508L42.4068 45.202C42.2388 45.626 42.0348 45.986 41.7948 46.282C41.5548 46.578 41.2748 46.802 40.9548 46.954C40.6428 47.114 40.2828 47.194 39.8748 47.194Z" fill="url(#paint0_linear_1619_5593)"></path>
  <defs>
    <linearGradient id="paint0_linear_1619_5593" x1="46" y1="39.542" x2="2.23841e-07" y2="39.542" gradientUnits="userSpaceOnUse">
      <stop stop-color="#424242"></stop>
      <stop offset="1" stop-color="#191919"></stop>
    </linearGradient>
  </defs>
</svg>
