<?xml version="1.0" encoding="UTF-8"?>
<svg xmlns="http://www.w3.org/2000/svg" width="48.992" height="23.084" viewBox="0 0 48.992 23.084">
  <g id="Tag" transform="translate(-1500.808 -3.06)">
    <g id="Rectangle_30" data-name="Rectangle 30" transform="translate(1500.808 3.06)" fill="none" stroke="#191919" stroke-width="1">
      <rect width="48.992" height="23.084" rx="11.542" stroke="none"></rect>
      <rect x="0.5" y="0.5" width="47.992" height="22.084" rx="11.042" fill="none"></rect>
    </g>
    <path id="Path_51" data-name="Path 51" d="M.864,0V-8.94H2.136l4.92,6.624-.66.132V-8.94H8.028V0H6.744L1.9-6.672,2.5-6.8V0ZM12.72.144a3.349,3.349,0,0,1-1.764-.456A3.176,3.176,0,0,1,9.78-1.548a3.586,3.586,0,0,1-.42-1.728,3.517,3.517,0,0,1,.426-1.746A3.21,3.21,0,0,1,10.95-6.228a3.139,3.139,0,0,1,1.65-.444,3.373,3.373,0,0,1,1.35.252,2.879,2.879,0,0,1,.99.7,3.116,3.116,0,0,1,.624,1.014,3.443,3.443,0,0,1,.216,1.23q0,.168-.018.348a1.294,1.294,0,0,1-.066.312h-5.04v-1.2h4.152l-.744.564a1.788,1.788,0,0,0-.054-.984,1.409,1.409,0,0,0-.528-.684,1.517,1.517,0,0,0-.882-.252,1.589,1.589,0,0,0-.876.246,1.523,1.523,0,0,0-.582.72,2.5,2.5,0,0,0-.15,1.146A2.122,2.122,0,0,0,11.154-2.2a1.577,1.577,0,0,0,.624.714,1.8,1.8,0,0,0,.954.252,1.746,1.746,0,0,0,.918-.228,1.645,1.645,0,0,0,.594-.612l1.272.624a2.223,2.223,0,0,1-.6.828,3,3,0,0,1-.966.564A3.559,3.559,0,0,1,12.72.144ZM18.612,0,16.368-6.528h1.656l1.644,4.956-.576-.012,1.752-4.944h1.392l1.74,4.944-.576.012,1.644-4.956H26.7L24.456,0h-1.4L21.276-5.172H21.8L20,0Zm9.756-2.712L28.26-8.94h1.6l-.108,6.228ZM28.26,0V-1.68h1.6V0Z" transform="translate(1509.944 19)" fill="#191919"></path>
  </g>
</svg>
