<?xml version="1.0" encoding="UTF-8"?>
<svg xmlns="http://www.w3.org/2000/svg" width="120" height="32" viewBox="0 0 120 32" fill="none">
  <path d="M9.638 24.9828C7.67533 24.9828 6.15 24.4494 5.062 23.3828C3.99533 22.2948 3.462 20.7694 3.462 18.8068V11.1268H0.454V7.38277H0.774C1.62733 7.38277 2.28867 7.15877 2.758 6.71077C3.22733 6.26277 3.462 5.6121 3.462 4.75877V3.41477H7.654V7.38277H11.654V11.1268H7.654V18.5828C7.654 19.1588 7.75 19.6494 7.942 20.0548C8.15533 20.4601 8.47533 20.7694 8.902 20.9828C9.35 21.1961 9.91533 21.3028 10.598 21.3028C10.7473 21.3028 10.918 21.2921 11.11 21.2708C11.3233 21.2494 11.526 21.2281 11.718 21.2068V24.7908C11.4193 24.8334 11.078 24.8761 10.694 24.9188C10.31 24.9614 9.958 24.9828 9.638 24.9828ZM14.6008 24.7908V0.566771H18.7928V10.8068L18.2168 10.1988C18.6221 9.15344 19.2834 8.3641 20.2008 7.83077C21.1394 7.2761 22.2274 6.99877 23.4648 6.99877C24.7448 6.99877 25.8754 7.2761 26.8568 7.83077C27.8594 8.38544 28.6381 9.1641 29.1928 10.1668C29.7474 11.1481 30.0248 12.2894 30.0248 13.5908V24.7908H25.8328V14.5828C25.8328 13.8148 25.6834 13.1534 25.3848 12.5988C25.0861 12.0441 24.6701 11.6174 24.1368 11.3188C23.6248 10.9988 23.0168 10.8388 22.3128 10.8388C21.6301 10.8388 21.0221 10.9988 20.4888 11.3188C19.9554 11.6174 19.5394 12.0441 19.2408 12.5988C18.9421 13.1534 18.7928 13.8148 18.7928 14.5828V24.7908H14.6008ZM41.5055 25.1748C39.7135 25.1748 38.1455 24.7694 36.8015 23.9588C35.4575 23.1481 34.4122 22.0494 33.6655 20.6628C32.9188 19.2761 32.5455 17.7401 32.5455 16.0548C32.5455 14.3054 32.9188 12.7588 33.6655 11.4148C34.4335 10.0494 35.4682 8.9721 36.7695 8.18277C38.0922 7.39344 39.5642 6.99877 41.1855 6.99877C42.5508 6.99877 43.7455 7.22277 44.7695 7.67077C45.8148 8.11877 46.7002 8.73744 47.4255 9.52677C48.1508 10.3161 48.7055 11.2228 49.0895 12.2468C49.4735 13.2494 49.6655 14.3374 49.6655 15.5108C49.6655 15.8094 49.6442 16.1188 49.6015 16.4388C49.5802 16.7588 49.5268 17.0361 49.4415 17.2708H36.0015V14.0708H47.0735L45.0895 15.5748C45.2815 14.5934 45.2282 13.7188 44.9295 12.9508C44.6522 12.1828 44.1828 11.5748 43.5215 11.1268C42.8815 10.6788 42.1028 10.4548 41.1855 10.4548C40.3108 10.4548 39.5322 10.6788 38.8495 11.1268C38.1668 11.5534 37.6442 12.1934 37.2815 13.0468C36.9402 13.8788 36.8122 14.8921 36.8975 16.0868C36.8122 17.1534 36.9508 18.1028 37.3135 18.9348C37.6975 19.7454 38.2522 20.3748 38.9775 20.8228C39.7242 21.2708 40.5775 21.4948 41.5375 21.4948C42.4975 21.4948 43.3082 21.2921 43.9695 20.8868C44.6522 20.4814 45.1855 19.9374 45.5695 19.2548L48.9615 20.9188C48.6202 21.7508 48.0868 22.4868 47.3615 23.1268C46.6362 23.7668 45.7722 24.2681 44.7695 24.6308C43.7882 24.9934 42.7002 25.1748 41.5055 25.1748ZM52.5233 24.7908V0.566771H56.7153V24.7908H52.5233ZM68.7778 25.1748C67.0711 25.1748 65.5138 24.7801 64.1058 23.9908C62.7191 23.2014 61.6098 22.1241 60.7778 20.7588C59.9671 19.3934 59.5618 17.8361 59.5618 16.0868C59.5618 14.3374 59.9671 12.7801 60.7778 11.4148C61.6098 10.0494 62.7191 8.9721 64.1058 8.18277C65.4924 7.39344 67.0498 6.99877 68.7778 6.99877C70.4844 6.99877 72.0311 7.39344 73.4178 8.18277C74.8044 8.9721 75.9031 10.0494 76.7138 11.4148C77.5458 12.7588 77.9618 14.3161 77.9618 16.0868C77.9618 17.8361 77.5458 19.3934 76.7138 20.7588C75.8818 22.1241 74.7724 23.2014 73.3858 23.9908C71.9991 24.7801 70.4631 25.1748 68.7778 25.1748ZM68.7778 21.3348C69.7164 21.3348 70.5378 21.1108 71.2418 20.6628C71.9671 20.2148 72.5324 19.5961 72.9378 18.8068C73.3644 17.9961 73.5778 17.0894 73.5778 16.0868C73.5778 15.0628 73.3644 14.1668 72.9378 13.3988C72.5324 12.6094 71.9671 11.9908 71.2418 11.5428C70.5378 11.0734 69.7164 10.8388 68.7778 10.8388C67.8178 10.8388 66.9751 11.0734 66.2498 11.5428C65.5244 11.9908 64.9484 12.6094 64.5218 13.3988C64.1164 14.1668 63.9138 15.0628 63.9138 16.0868C63.9138 17.0894 64.1164 17.9961 64.5218 18.8068C64.9484 19.5961 65.5244 20.2148 66.2498 20.6628C66.9751 21.1108 67.8178 21.3348 68.7778 21.3348ZM89.2688 31.8308C87.9674 31.8308 86.7621 31.6174 85.6528 31.1908C84.5434 30.7641 83.5834 30.1668 82.7728 29.3988C81.9834 28.6521 81.4074 27.7668 81.0448 26.7428L84.9488 25.2708C85.2048 26.0814 85.7061 26.7321 86.4528 27.2228C87.2208 27.7348 88.1594 27.9908 89.2688 27.9908C90.1221 27.9908 90.8688 27.8308 91.5088 27.5108C92.1701 27.1908 92.6821 26.7214 93.0448 26.1028C93.4074 25.5054 93.5888 24.7801 93.5888 23.9268V19.9588L94.3888 20.9188C93.7914 21.9641 92.9914 22.7534 91.9888 23.2868C90.9861 23.8201 89.8448 24.0868 88.5648 24.0868C86.9434 24.0868 85.4928 23.7134 84.2128 22.9668C82.9328 22.2201 81.9301 21.1961 81.2048 19.8948C80.4794 18.5934 80.1168 17.1321 80.1168 15.5108C80.1168 13.8681 80.4794 12.4068 81.2048 11.1268C81.9301 9.84677 82.9221 8.8441 84.1808 8.11877C85.4394 7.3721 86.8688 6.99877 88.4688 6.99877C89.7701 6.99877 90.9114 7.2761 91.8928 7.83077C92.8954 8.3641 93.7274 9.14277 94.3888 10.1668L93.8128 11.2228V7.38277H97.7808V23.9268C97.7808 25.4414 97.4074 26.7961 96.6608 27.9908C95.9354 29.1854 94.9328 30.1241 93.6528 30.8068C92.3941 31.4894 90.9328 31.8308 89.2688 31.8308ZM89.0768 20.2148C89.9728 20.2148 90.7514 20.0228 91.4128 19.6388C92.0954 19.2334 92.6288 18.6788 93.0128 17.9748C93.3968 17.2708 93.5888 16.4601 93.5888 15.5428C93.5888 14.6468 93.3861 13.8468 92.9808 13.1428C92.5968 12.4174 92.0634 11.8521 91.3808 11.4468C90.7194 11.0414 89.9514 10.8388 89.0768 10.8388C88.2021 10.8388 87.4128 11.0414 86.7088 11.4468C86.0048 11.8521 85.4501 12.4174 85.0448 13.1428C84.6608 13.8468 84.4688 14.6468 84.4688 15.5428C84.4688 16.4388 84.6608 17.2388 85.0448 17.9428C85.4501 18.6468 85.9941 19.2014 86.6768 19.6068C87.3808 20.0121 88.1808 20.2148 89.0768 20.2148ZM109.888 25.1748C108.181 25.1748 106.624 24.7801 105.216 23.9908C103.829 23.2014 102.72 22.1241 101.888 20.7588C101.077 19.3934 100.672 17.8361 100.672 16.0868C100.672 14.3374 101.077 12.7801 101.888 11.4148C102.72 10.0494 103.829 8.9721 105.216 8.18277C106.602 7.39344 108.16 6.99877 109.888 6.99877C111.594 6.99877 113.141 7.39344 114.528 8.18277C115.914 8.9721 117.013 10.0494 117.824 11.4148C118.656 12.7588 119.072 14.3161 119.072 16.0868C119.072 17.8361 118.656 19.3934 117.824 20.7588C116.992 22.1241 115.882 23.2014 114.496 23.9908C113.109 24.7801 111.573 25.1748 109.888 25.1748ZM109.888 21.3348C110.826 21.3348 111.648 21.1108 112.352 20.6628C113.077 20.2148 113.642 19.5961 114.048 18.8068C114.474 17.9961 114.688 17.0894 114.688 16.0868C114.688 15.0628 114.474 14.1668 114.048 13.3988C113.642 12.6094 113.077 11.9908 112.352 11.5428C111.648 11.0734 110.826 10.8388 109.888 10.8388C108.928 10.8388 108.085 11.0734 107.36 11.5428C106.634 11.9908 106.058 12.6094 105.632 13.3988C105.226 14.1668 105.024 15.0628 105.024 16.0868C105.024 17.0894 105.226 17.9961 105.632 18.8068C106.058 19.5961 106.634 20.2148 107.36 20.6628C108.085 21.1108 108.928 21.3348 109.888 21.3348Z" fill="#191919"></path>
</svg>
