<?xml version="1.0" encoding="UTF-8"?>
<svg xmlns="http://www.w3.org/2000/svg" width="161" height="26" viewBox="0 0 161 26" fill="none">
  <path d="M0.862 24.7908V0.950769H10.942C12.5847 0.950769 13.9927 1.2281 15.166 1.78277C16.3393 2.33744 17.2353 3.13744 17.854 4.18277C18.4727 5.20677 18.782 6.45477 18.782 7.92677C18.782 8.9721 18.494 9.97477 17.918 10.9348C17.342 11.8734 16.3927 12.6628 15.07 13.3028V10.8708C16.3287 11.3614 17.2993 11.9481 17.982 12.6308C18.6647 13.3134 19.134 14.0601 19.39 14.8708C19.646 15.6601 19.774 16.4921 19.774 17.3668C19.774 19.7134 18.9953 21.5374 17.438 22.8388C15.8807 24.1401 13.7153 24.7908 10.942 24.7908H0.862ZM5.822 20.4708H11.518C12.5207 20.4708 13.3207 20.1828 13.918 19.6068C14.5153 19.0308 14.814 18.2841 14.814 17.3668C14.814 16.4281 14.5153 15.6708 13.918 15.0948C13.3207 14.5188 12.5207 14.2308 11.518 14.2308H5.822V20.4708ZM5.822 9.91077H11.294C12.062 9.91077 12.67 9.69744 13.118 9.27077C13.5873 8.82277 13.822 8.2361 13.822 7.51077C13.822 6.78544 13.5873 6.20944 13.118 5.78277C12.67 5.33477 12.062 5.11077 11.294 5.11077H5.822V9.91077ZM22.6358 24.7908V0.950769H31.7558C33.3984 0.950769 34.8491 1.23877 36.1078 1.81477C37.3878 2.39077 38.3904 3.2441 39.1158 4.37477C39.8411 5.50544 40.2038 6.90277 40.2038 8.56677C40.2038 10.1881 39.8304 11.5748 39.0838 12.7268C38.3371 13.8574 37.3344 14.7108 36.0758 15.2868L41.5158 24.7908H35.9478L30.0598 14.2628L33.2598 16.1508H27.5958V24.7908H22.6358ZM27.5958 11.8308H31.7878C32.4918 11.8308 33.0998 11.6921 33.6118 11.4148C34.1238 11.1374 34.5184 10.7534 34.7958 10.2628C35.0944 9.7721 35.2438 9.20677 35.2438 8.56677C35.2438 7.90544 35.0944 7.32944 34.7958 6.83877C34.5184 6.3481 34.1238 5.9641 33.6118 5.68677C33.0998 5.40944 32.4918 5.27077 31.7878 5.27077H27.5958V11.8308ZM51.8515 25.1748C50.3155 25.1748 48.9715 24.9081 47.8195 24.3748C46.6888 23.8201 45.8035 23.0414 45.1635 22.0388C44.5235 21.0361 44.2035 19.8734 44.2035 18.5508C44.2035 17.4414 44.3955 16.4814 44.7795 15.6708C45.1848 14.8601 45.6755 14.1774 46.2515 13.6228C46.8275 13.0681 47.3928 12.6201 47.9475 12.2788C48.5235 11.9161 48.9928 11.6388 49.3555 11.4468L51.5955 10.2948C52.2995 9.9321 52.9288 9.5801 53.4835 9.23877C54.0382 8.89744 54.4755 8.5241 54.7955 8.11877C55.1368 7.6921 55.3075 7.20144 55.3075 6.64677C55.3075 6.00677 55.0942 5.46277 54.6675 5.01477C54.2622 4.56677 53.7395 4.34277 53.0995 4.34277C52.4808 4.34277 51.9475 4.56677 51.4995 5.01477C51.0728 5.44144 50.8595 5.9961 50.8595 6.67877C50.8595 7.19077 50.9768 7.6921 51.2115 8.18277C51.4462 8.67344 51.7128 9.12144 52.0115 9.52677C52.3315 9.9321 52.6195 10.2841 52.8755 10.5828L65.3555 24.7908H59.7875L49.5155 13.2708C49.0248 12.7161 48.5342 12.1294 48.0435 11.5108C47.5742 10.8921 47.1795 10.2094 46.8595 9.46277C46.5608 8.69477 46.4115 7.84144 46.4115 6.90277C46.4115 5.60144 46.7208 4.48144 47.3395 3.54277C47.9582 2.58277 48.7688 1.84677 49.7715 1.33477C50.7742 0.82277 51.8622 0.566771 53.0355 0.566771C54.2728 0.566771 55.3822 0.833437 56.3635 1.36677C57.3448 1.9001 58.1235 2.62544 58.6995 3.54277C59.2755 4.4601 59.5635 5.50544 59.5635 6.67877C59.5635 7.8521 59.2862 8.85477 58.7315 9.68677C58.1982 10.4974 57.5475 11.1801 56.7795 11.7348C56.0115 12.2894 55.2862 12.7588 54.6035 13.1428L52.2675 14.4868C51.8408 14.7214 51.3822 15.0201 50.8915 15.3828C50.4008 15.7454 49.9848 16.1828 49.6435 16.6948C49.3235 17.1854 49.1635 17.7828 49.1635 18.4868C49.1635 19.3188 49.4195 19.9801 49.9315 20.4708C50.4435 20.9401 51.1475 21.1748 52.0435 21.1748C52.5982 21.1748 53.0888 21.0894 53.5155 20.9188C53.9422 20.7268 54.3155 20.5028 54.6355 20.2468C54.9555 19.9694 55.2222 19.6814 55.4355 19.3828C55.6702 19.0841 55.8728 18.8174 56.0435 18.5828L59.7875 13.1748H64.6515L60.3315 19.9588C60.0115 20.4708 59.6168 21.0361 59.1475 21.6548C58.6995 22.2521 58.1448 22.8174 57.4835 23.3508C56.8222 23.8841 56.0328 24.3214 55.1155 24.6628C54.1982 25.0041 53.1102 25.1748 51.8515 25.1748ZM69.3708 24.7908V0.950769H73.1788L85.9788 17.8148L83.9308 18.2948V0.950769H88.8908V24.7908H85.0508L72.4748 7.79877L74.3308 7.31877V24.7908H69.3708ZM91.0408 24.7908L99.1048 0.950769H105.697L113.761 24.7908H108.353L106.753 19.9268H98.0168L96.4168 24.7908H91.0408ZM99.3928 15.6068H105.377L101.729 4.34277H103.073L99.3928 15.6068ZM115.918 24.7908V0.950769H120.718L129.646 12.7908H127.406L136.078 0.950769H140.878V24.7908H135.918V6.42277L137.902 6.87077L128.718 18.7108H128.078L119.214 6.87077L120.878 6.42277V24.7908H115.918ZM144.786 24.7908V0.950769H160.818V5.27077H149.746V10.6788H160.178V14.9988H149.746V20.4708H160.818V24.7908H144.786Z" fill="#191919"></path>
</svg>
