<?xml version="1.0" encoding="UTF-8"?>
<svg xmlns="http://www.w3.org/2000/svg" width="165.636" height="41.539" viewBox="0 0 165.636 41.539">
  <g id="Logo" transform="translate(-938.376 -69.473)">
    <path id="Path_5" data-name="Path 5" d="M0,5.517A5.374,5.374,0,0,1,5.219,0q.19,0,.376.014V11.02q-.186.014-.376.014A5.374,5.374,0,0,1,0,5.517Z" transform="translate(1054.794 81.827) rotate(-150)" fill="#ffffff" style="mix-blend-mode: darken;isolation: isolate"></path>
    <path id="Path_4" data-name="Path 4" d="M2.376,0V-26.82h5.58V-4.86H19.3V0ZM30.06.432A10.345,10.345,0,0,1,24.624-.954,9.578,9.578,0,0,1,21.06-4.68,10.758,10.758,0,0,1,19.8-9.864a10.42,10.42,0,0,1,1.314-5.256,9.821,9.821,0,0,1,3.546-3.636,9.645,9.645,0,0,1,5.04-1.332,10.844,10.844,0,0,1,4.14.738,8.507,8.507,0,0,1,3.042,2.07,9.115,9.115,0,0,1,1.89,3.078,10.833,10.833,0,0,1,.648,3.8q0,.576-.054,1.134a3.916,3.916,0,0,1-.2.954H24.444v-3.96H36.108L33.552-10.4a5.066,5.066,0,0,0-.036-2.754,3.676,3.676,0,0,0-1.386-1.908,4.094,4.094,0,0,0-2.43-.7,4.192,4.192,0,0,0-2.412.684,4.1,4.1,0,0,0-1.512,2.016,7.9,7.9,0,0,0-.4,3.24,6,6,0,0,0,.4,2.916A4.219,4.219,0,0,0,27.432-4.95a4.97,4.97,0,0,0,2.7.7A4.963,4.963,0,0,0,32.6-4.824a4.147,4.147,0,0,0,1.6-1.584l4.32,2.052A6.523,6.523,0,0,1,36.7-1.836,8.92,8.92,0,0,1,33.768-.162,11.126,11.126,0,0,1,30.06.432ZM41.508,0V-19.656h5.04v4.788l-.54-.792A4.869,4.869,0,0,1,48.1-19.008a7.088,7.088,0,0,1,3.96-1.08,7.547,7.547,0,0,1,4.3,1.242,5.286,5.286,0,0,1,2.322,3.33l-1.548.144A7.3,7.3,0,0,1,59.9-18.936a7.643,7.643,0,0,1,4.212-1.152,7.448,7.448,0,0,1,3.762.936,6.727,6.727,0,0,1,2.574,2.61,7.872,7.872,0,0,1,.936,3.906V0h-5.4V-11.484a4.384,4.384,0,0,0-.414-1.98,3.14,3.14,0,0,0-1.17-1.3,3.422,3.422,0,0,0-1.836-.468,3.445,3.445,0,0,0-1.818.468,3.1,3.1,0,0,0-1.188,1.3,4.384,4.384,0,0,0-.414,1.98V0h-5.4V-11.484a4.384,4.384,0,0,0-.414-1.98,3.14,3.14,0,0,0-1.17-1.3,3.422,3.422,0,0,0-1.836-.468,3.445,3.445,0,0,0-1.818.468,3.1,3.1,0,0,0-1.188,1.3,4.384,4.384,0,0,0-.414,1.98V0ZM73.872,0V-19.656h5.04v4.788l-.54-.792a4.869,4.869,0,0,1,2.088-3.348,7.088,7.088,0,0,1,3.96-1.08,7.547,7.547,0,0,1,4.3,1.242,5.286,5.286,0,0,1,2.322,3.33l-1.548.144a7.3,7.3,0,0,1,2.772-3.564,7.643,7.643,0,0,1,4.212-1.152,7.448,7.448,0,0,1,3.762.936,6.727,6.727,0,0,1,2.574,2.61,7.872,7.872,0,0,1,.936,3.906V0h-5.4V-11.484a4.384,4.384,0,0,0-.414-1.98,3.14,3.14,0,0,0-1.17-1.3,3.422,3.422,0,0,0-1.836-.468,3.445,3.445,0,0,0-1.818.468,3.1,3.1,0,0,0-1.188,1.3,4.384,4.384,0,0,0-.414,1.98V0h-5.4V-11.484a4.384,4.384,0,0,0-.414-1.98,3.14,3.14,0,0,0-1.17-1.3,3.422,3.422,0,0,0-1.836-.468,3.445,3.445,0,0,0-1.818.468,3.1,3.1,0,0,0-1.188,1.3,4.384,4.384,0,0,0-.414,1.98V0Zm42.12.432A10.735,10.735,0,0,1,110.682-.9a10.234,10.234,0,0,1-3.816-3.654,9.894,9.894,0,0,1-1.422-5.274,9.869,9.869,0,0,1,1.422-5.292,10.28,10.28,0,0,1,3.816-3.636,10.735,10.735,0,0,1,5.31-1.332,10.634,10.634,0,0,1,5.292,1.332,10.32,10.32,0,0,1,3.8,3.636A9.869,9.869,0,0,1,126.5-9.828a9.894,9.894,0,0,1-1.422,5.274,10.274,10.274,0,0,1-3.8,3.654A10.634,10.634,0,0,1,115.992.432Zm0-4.86a4.767,4.767,0,0,0,2.574-.684,4.758,4.758,0,0,0,1.728-1.908,6.049,6.049,0,0,0,.63-2.808,5.94,5.94,0,0,0-.63-2.79,4.92,4.92,0,0,0-1.728-1.908,4.674,4.674,0,0,0-2.574-.7,4.765,4.765,0,0,0-2.592.7,4.873,4.873,0,0,0-1.746,1.908,5.94,5.94,0,0,0-.63,2.79,6.049,6.049,0,0,0,.63,2.808A4.715,4.715,0,0,0,113.4-5.112,4.86,4.86,0,0,0,115.992-4.428ZM128.592,0V-19.656h5.04v3.888l-.288-.864a4.88,4.88,0,0,1,2.214-2.61,7.285,7.285,0,0,1,3.582-.846,7.872,7.872,0,0,1,3.906.936,6.657,6.657,0,0,1,2.61,2.61,7.948,7.948,0,0,1,.936,3.942V0h-5.4V-11.484a4.09,4.09,0,0,0-.45-1.98,3.239,3.239,0,0,0-1.278-1.3,3.737,3.737,0,0,0-1.872-.468,3.737,3.737,0,0,0-1.872.468,3.239,3.239,0,0,0-1.278,1.3,4.09,4.09,0,0,0-.45,1.98V0Zm23.184,7.992a9.548,9.548,0,0,1-1.674-.144,4.832,4.832,0,0,1-1.422-.468V2.952a10.122,10.122,0,0,0,1.188.252,8.123,8.123,0,0,0,1.26.108,2.935,2.935,0,0,0,2.268-.756A6.474,6.474,0,0,0,154.512.828l1.332-3.06-.072,4.5-8.64-21.924h5.8l5.724,15.588h-2.16l5.724-15.588h5.8L159.588,1.836a11.935,11.935,0,0,1-1.944,3.42,7.668,7.668,0,0,1-2.61,2.052A7.578,7.578,0,0,1,151.776,7.992Z" transform="translate(936 103.02)" fill="#ffffff"></path>
  </g>
</svg>
