<?xml version="1.0" encoding="UTF-8"?>
<svg xmlns="http://www.w3.org/2000/svg" width="168" height="26" viewBox="0 0 168 26" fill="none">
  <path d="M10.086 19.1748C8.358 19.1748 6.80067 18.7801 5.414 17.9908C4.04867 17.1801 2.97133 16.0921 2.182 14.7268C1.39267 13.3401 0.998 11.7828 0.998 10.0548C0.998 8.32677 1.39267 6.7801 2.182 5.41477C2.97133 4.04944 4.04867 2.9721 5.414 2.18277C6.80067 1.39344 8.358 0.99877 10.086 0.99877C11.3233 0.99877 12.4753 1.22277 13.542 1.67077C14.6087 2.09744 15.526 2.69477 16.294 3.46277C17.0833 4.20944 17.6487 5.10544 17.99 6.15077L14.31 7.75077C13.99 6.8761 13.446 6.1721 12.678 5.63877C11.9313 5.10544 11.0673 4.83877 10.086 4.83877C9.16867 4.83877 8.34733 5.06277 7.622 5.51077C6.918 5.95877 6.36333 6.57744 5.958 7.36677C5.55267 8.1561 5.35 9.06277 5.35 10.0868C5.35 11.1108 5.55267 12.0174 5.958 12.8068C6.36333 13.5961 6.918 14.2148 7.622 14.6628C8.34733 15.1108 9.16867 15.3348 10.086 15.3348C11.0887 15.3348 11.9633 15.0681 12.71 14.5348C13.4567 14.0014 13.99 13.2868 14.31 12.3908L17.99 14.0548C17.6487 15.0361 17.094 15.9214 16.326 16.7108C15.558 17.4788 14.6407 18.0868 13.574 18.5348C12.5073 18.9614 11.3447 19.1748 10.086 19.1748ZM29.3628 19.1748C27.6561 19.1748 26.0988 18.7801 24.6908 17.9908C23.3041 17.2014 22.1948 16.1241 21.3628 14.7588C20.5521 13.3934 20.1468 11.8361 20.1468 10.0868C20.1468 8.33744 20.5521 6.7801 21.3628 5.41477C22.1948 4.04944 23.3041 2.9721 24.6908 2.18277C26.0774 1.39344 27.6348 0.99877 29.3628 0.99877C31.0694 0.99877 32.6161 1.39344 34.0028 2.18277C35.3894 2.9721 36.4881 4.04944 37.2988 5.41477C38.1308 6.75877 38.5468 8.3161 38.5468 10.0868C38.5468 11.8361 38.1308 13.3934 37.2988 14.7588C36.4668 16.1241 35.3574 17.2014 33.9708 17.9908C32.5841 18.7801 31.0481 19.1748 29.3628 19.1748ZM29.3628 15.3348C30.3014 15.3348 31.1228 15.1108 31.8268 14.6628C32.5521 14.2148 33.1174 13.5961 33.5228 12.8068C33.9494 11.9961 34.1628 11.0894 34.1628 10.0868C34.1628 9.06277 33.9494 8.16677 33.5228 7.39877C33.1174 6.60944 32.5521 5.99077 31.8268 5.54277C31.1228 5.07344 30.3014 4.83877 29.3628 4.83877C28.4028 4.83877 27.5601 5.07344 26.8348 5.54277C26.1094 5.99077 25.5334 6.60944 25.1068 7.39877C24.7014 8.16677 24.4988 9.06277 24.4988 10.0868C24.4988 11.0894 24.7014 11.9961 25.1068 12.8068C25.5334 13.5961 26.1094 14.2148 26.8348 14.6628C27.5601 15.1108 28.4028 15.3348 29.3628 15.3348ZM41.4058 18.7908V1.38277H45.3418V5.41477L44.8938 4.74277C45.2138 3.4841 45.8538 2.54544 46.8138 1.92677C47.7738 1.3081 48.9044 0.99877 50.2058 0.99877C51.6351 0.99877 52.8938 1.3721 53.9818 2.11877C55.0698 2.86544 55.7738 3.84677 56.0938 5.06277L54.9098 5.15877C55.4431 3.7721 56.2431 2.73744 57.3098 2.05477C58.3764 1.35077 59.6031 0.99877 60.9898 0.99877C62.2271 0.99877 63.3258 1.2761 64.2858 1.83077C65.2671 2.38544 66.0351 3.1641 66.5898 4.16677C67.1444 5.1481 67.4218 6.28944 67.4218 7.59077V18.7908H63.2298V8.58277C63.2298 7.81477 63.0911 7.15344 62.8138 6.59877C62.5364 6.0441 62.1524 5.61744 61.6618 5.31877C61.1711 4.99877 60.5738 4.83877 59.8698 4.83877C59.2084 4.83877 58.6218 4.99877 58.1098 5.31877C57.5978 5.61744 57.2031 6.0441 56.9258 6.59877C56.6484 7.15344 56.5098 7.81477 56.5098 8.58277V18.7908H52.3178V8.58277C52.3178 7.81477 52.1791 7.15344 51.9018 6.59877C51.6244 6.0441 51.2298 5.61744 50.7178 5.31877C50.2271 4.99877 49.6404 4.83877 48.9578 4.83877C48.2964 4.83877 47.7098 4.99877 47.1978 5.31877C46.6858 5.61744 46.2911 6.0441 46.0138 6.59877C45.7364 7.15344 45.5978 7.81477 45.5978 8.58277V18.7908H41.4058ZM70.6483 25.1908V1.38277H74.5843V4.83877L74.2003 3.97477C74.7976 3.0361 75.6083 2.31077 76.6323 1.79877C77.6563 1.26544 78.8403 0.99877 80.1843 0.99877C81.8269 0.99877 83.3096 1.4041 84.6323 2.21477C85.9549 3.02544 87.0003 4.11344 87.7683 5.47877C88.5576 6.8441 88.9523 8.3801 88.9523 10.0868C88.9523 11.7721 88.5683 13.3081 87.8003 14.6948C87.0323 16.0814 85.9869 17.1801 84.6643 17.9908C83.3416 18.7801 81.8376 19.1748 80.1523 19.1748C78.8936 19.1748 77.7309 18.9294 76.6643 18.4388C75.6189 17.9268 74.7869 17.2014 74.1683 16.2628L74.8403 15.4308V25.1908H70.6483ZM79.6723 15.3348C80.6323 15.3348 81.4856 15.1108 82.2323 14.6628C82.9789 14.2148 83.5549 13.5961 83.9603 12.8068C84.3869 12.0174 84.6003 11.1108 84.6003 10.0868C84.6003 9.06277 84.3869 8.16677 83.9603 7.39877C83.5549 6.60944 82.9789 5.99077 82.2323 5.54277C81.4856 5.07344 80.6323 4.83877 79.6723 4.83877C78.7549 4.83877 77.9229 5.06277 77.1763 5.51077C76.4509 5.95877 75.8749 6.5881 75.4483 7.39877C75.0429 8.1881 74.8403 9.0841 74.8403 10.0868C74.8403 11.1108 75.0429 12.0174 75.4483 12.8068C75.8749 13.5961 76.4509 14.2148 77.1763 14.6628C77.9229 15.1108 78.7549 15.3348 79.6723 15.3348ZM97.1083 19.1748C95.8923 19.1748 94.8363 18.9721 93.9403 18.5668C93.0443 18.1614 92.3509 17.5854 91.8603 16.8388C91.3696 16.0708 91.1243 15.1854 91.1243 14.1828C91.1243 13.2228 91.3376 12.3694 91.7643 11.6228C92.1909 10.8548 92.8523 10.2148 93.7483 9.70277C94.6443 9.19077 95.7749 8.8281 97.1403 8.61477L102.836 7.68677V10.8868L97.9403 11.7188C97.1083 11.8681 96.4896 12.1348 96.0843 12.5188C95.6789 12.9028 95.4763 13.4041 95.4763 14.0228C95.4763 14.6201 95.7003 15.1001 96.1483 15.4628C96.6176 15.8041 97.1936 15.9748 97.8763 15.9748C98.7509 15.9748 99.5189 15.7934 100.18 15.4308C100.863 15.0468 101.386 14.5241 101.748 13.8628C102.132 13.2014 102.324 12.4761 102.324 11.6868V7.20677C102.324 6.4601 102.026 5.84144 101.428 5.35077C100.852 4.83877 100.084 4.58277 99.1243 4.58277C98.2283 4.58277 97.4283 4.8281 96.7243 5.31877C96.0416 5.7881 95.5403 6.41744 95.2203 7.20677L91.7963 5.54277C92.1376 4.62544 92.6709 3.8361 93.3963 3.17477C94.1429 2.4921 95.0176 1.95877 96.0203 1.57477C97.0229 1.19077 98.1109 0.99877 99.2843 0.99877C100.714 0.99877 101.972 1.26544 103.06 1.79877C104.148 2.31077 104.991 3.0361 105.588 3.97477C106.207 4.8921 106.516 5.96944 106.516 7.20677V18.7908H102.548V15.8148L103.444 15.7508C102.996 16.4974 102.463 17.1268 101.844 17.6388C101.226 18.1294 100.522 18.5134 99.7323 18.7908C98.9429 19.0468 98.0683 19.1748 97.1083 19.1748ZM110.071 18.7908V1.38277H114.007V4.80677L113.687 4.19877C114.092 3.15344 114.753 2.3641 115.671 1.83077C116.609 1.2761 117.697 0.99877 118.935 0.99877C120.215 0.99877 121.345 1.2761 122.327 1.83077C123.329 2.38544 124.108 3.1641 124.663 4.16677C125.217 5.1481 125.495 6.28944 125.495 7.59077V18.7908H121.303V8.58277C121.303 7.81477 121.153 7.15344 120.855 6.59877C120.556 6.0441 120.14 5.61744 119.607 5.31877C119.095 4.99877 118.487 4.83877 117.783 4.83877C117.1 4.83877 116.492 4.99877 115.959 5.31877C115.425 5.61744 115.009 6.0441 114.711 6.59877C114.412 7.15344 114.263 7.81477 114.263 8.58277V18.7908H110.071ZM130.519 25.8628C130.05 25.8628 129.591 25.8201 129.143 25.7348C128.695 25.6708 128.29 25.5534 127.927 25.3828V21.8628C128.204 21.9268 128.535 21.9908 128.919 22.0548C129.324 22.1188 129.698 22.1508 130.039 22.1508C130.999 22.1508 131.692 21.9268 132.119 21.4788C132.567 21.0308 132.962 20.4441 133.303 19.7188L134.455 17.0308L134.391 20.5508L126.807 1.38277H131.319L136.631 15.5268H135.031L140.311 1.38277H144.855L137.271 20.5508C136.823 21.6814 136.279 22.6414 135.639 23.4308C134.999 24.2201 134.252 24.8174 133.399 25.2228C132.567 25.6494 131.607 25.8628 130.519 25.8628ZM150.637 18.7908L156.717 10.0548L150.605 1.38277H155.533L160.301 8.42277H158.093L162.861 1.38277H167.757L161.677 10.0548L167.725 18.7908H162.829L158.125 11.7828H160.269L155.565 18.7908H150.637Z" fill="#191919"></path>
</svg>
