<?xml version="1.0" encoding="UTF-8"?>
<svg xmlns="http://www.w3.org/2000/svg" width="147" height="35" viewBox="0 0 147 35" fill="none">
  <path d="M0.0177051 27.2908V0.470769H17.8377V4.79077H4.91371V11.6668H17.1177V15.9868H4.91371V22.9708H17.8377V27.2908H0.0177051ZM28.1239 27.7228C26.0359 27.7228 24.2119 27.2308 22.6519 26.2468C21.1159 25.2388 20.0599 23.8828 19.4839 22.1788L23.0119 20.4868C23.5159 21.5908 24.2119 22.4548 25.0999 23.0788C26.0119 23.7028 27.0199 24.0148 28.1239 24.0148C28.9879 24.0148 29.6719 23.8228 30.1759 23.4388C30.6799 23.0548 30.9319 22.5508 30.9319 21.9268C30.9319 21.5428 30.8239 21.2308 30.6079 20.9908C30.4159 20.7268 30.1399 20.5108 29.7799 20.3428C29.4439 20.1508 29.0719 19.9948 28.6639 19.8748L25.4599 18.9748C23.8039 18.4948 22.5439 17.7628 21.6799 16.7788C20.8399 15.7948 20.4199 14.6308 20.4199 13.2868C20.4199 12.0868 20.7199 11.0428 21.3199 10.1548C21.9439 9.24277 22.7959 8.53477 23.8759 8.03077C24.9799 7.52677 26.2399 7.27477 27.6559 7.27477C29.5039 7.27477 31.1359 7.71877 32.5519 8.60677C33.9679 9.49477 34.9759 10.7428 35.5759 12.3508L31.9759 14.0428C31.6399 13.1548 31.0759 12.4468 30.2839 11.9188C29.4919 11.3908 28.6039 11.1268 27.6199 11.1268C26.8279 11.1268 26.2039 11.3068 25.7479 11.6668C25.2919 12.0268 25.0639 12.4948 25.0639 13.0708C25.0639 13.4308 25.1599 13.7428 25.3519 14.0068C25.5439 14.2708 25.8079 14.4868 26.1439 14.6548C26.5039 14.8228 26.9119 14.9788 27.3679 15.1228L30.4999 16.0588C32.1079 16.5388 33.3439 17.2588 34.2079 18.2188C35.0959 19.1788 35.5399 20.3548 35.5399 21.7468C35.5399 22.9228 35.2279 23.9668 34.6039 24.8788C33.9799 25.7668 33.1159 26.4628 32.0119 26.9668C30.9079 27.4708 29.6119 27.7228 28.1239 27.7228ZM38.804 34.4908V7.70677H43.232V11.5948L42.8 10.6228C43.472 9.56677 44.384 8.75077 45.536 8.17477C46.688 7.57477 48.02 7.27477 49.532 7.27477C51.38 7.27477 53.048 7.73077 54.536 8.64277C56.024 9.55477 57.2 10.7788 58.064 12.3148C58.952 13.8508 59.396 15.5788 59.396 17.4988C59.396 19.3948 58.964 21.1228 58.1 22.6828C57.236 24.2428 56.06 25.4788 54.572 26.3908C53.084 27.2788 51.392 27.7228 49.496 27.7228C48.08 27.7228 46.772 27.4468 45.572 26.8948C44.396 26.3188 43.46 25.5028 42.764 24.4468L43.52 23.5108V34.4908H38.804ZM48.956 23.4028C50.036 23.4028 50.996 23.1508 51.836 22.6468C52.676 22.1428 53.324 21.4468 53.78 20.5588C54.26 19.6708 54.5 18.6508 54.5 17.4988C54.5 16.3468 54.26 15.3388 53.78 14.4748C53.324 13.5868 52.676 12.8908 51.836 12.3868C50.996 11.8588 50.036 11.5948 48.956 11.5948C47.924 11.5948 46.988 11.8468 46.148 12.3508C45.332 12.8548 44.684 13.5628 44.204 14.4748C43.748 15.3628 43.52 16.3708 43.52 17.4988C43.52 18.6508 43.748 19.6708 44.204 20.5588C44.684 21.4468 45.332 22.1428 46.148 22.6468C46.988 23.1508 47.924 23.4028 48.956 23.4028ZM68.5715 27.7228C67.2035 27.7228 66.0155 27.4948 65.0075 27.0388C63.9995 26.5828 63.2195 25.9348 62.6675 25.0948C62.1155 24.2308 61.8395 23.2348 61.8395 22.1068C61.8395 21.0268 62.0795 20.0668 62.5595 19.2268C63.0395 18.3628 63.7835 17.6428 64.7915 17.0668C65.7995 16.4908 67.0715 16.0828 68.6075 15.8428L75.0155 14.7988V18.3988L69.5075 19.3348C68.5715 19.5028 67.8755 19.8028 67.4195 20.2348C66.9635 20.6668 66.7355 21.2308 66.7355 21.9268C66.7355 22.5988 66.9875 23.1388 67.4915 23.5468C68.0195 23.9308 68.6675 24.1228 69.4355 24.1228C70.4195 24.1228 71.2835 23.9188 72.0275 23.5108C72.7955 23.0788 73.3835 22.4908 73.7915 21.7468C74.2235 21.0028 74.4395 20.1868 74.4395 19.2988V14.2588C74.4395 13.4188 74.1035 12.7228 73.4315 12.1708C72.7835 11.5948 71.9195 11.3068 70.8395 11.3068C69.8315 11.3068 68.9315 11.5828 68.1395 12.1348C67.3715 12.6628 66.8075 13.3708 66.4475 14.2588L62.5955 12.3868C62.9795 11.3548 63.5795 10.4668 64.3955 9.72277C65.2355 8.95477 66.2195 8.35477 67.3475 7.92277C68.4755 7.49077 69.6995 7.27477 71.0195 7.27477C72.6275 7.27477 74.0435 7.57477 75.2675 8.17477C76.4915 8.75077 77.4395 9.56677 78.1115 10.6228C78.8075 11.6548 79.1555 12.8668 79.1555 14.2588V27.2908H74.6915V23.9428L75.6995 23.8708C75.1955 24.7108 74.5955 25.4188 73.8995 25.9948C73.2035 26.5468 72.4115 26.9788 71.5235 27.2908C70.6355 27.5788 69.6515 27.7228 68.5715 27.7228ZM92.2624 27.7228C90.3664 27.7228 88.6744 27.2788 87.1864 26.3908C85.6984 25.4788 84.5224 24.2428 83.6584 22.6828C82.7944 21.1228 82.3624 19.3948 82.3624 17.4988C82.3624 15.5788 82.7944 13.8508 83.6584 12.3148C84.5224 10.7788 85.6984 9.55477 87.1864 8.64277C88.6984 7.73077 90.3784 7.27477 92.2264 7.27477C93.7144 7.27477 95.0344 7.57477 96.1864 8.17477C97.3624 8.75077 98.2864 9.56677 98.9584 10.6228L98.2384 11.5948V0.0387704H102.954V27.2908H98.4904V23.5108L98.9944 24.4468C98.3224 25.5028 97.3864 26.3188 96.1864 26.8948C94.9864 27.4468 93.6784 27.7228 92.2624 27.7228ZM92.7664 23.4028C93.8464 23.4028 94.7944 23.1508 95.6104 22.6468C96.4264 22.1428 97.0624 21.4468 97.5184 20.5588C97.9984 19.6708 98.2384 18.6508 98.2384 17.4988C98.2384 16.3708 97.9984 15.3628 97.5184 14.4748C97.0624 13.5628 96.4264 12.8548 95.6104 12.3508C94.7944 11.8468 93.8464 11.5948 92.7664 11.5948C91.7104 11.5948 90.7624 11.8588 89.9224 12.3868C89.0824 12.8908 88.4224 13.5868 87.9424 14.4748C87.4864 15.3388 87.2584 16.3468 87.2584 17.4988C87.2584 18.6508 87.4864 19.6708 87.9424 20.5588C88.4224 21.4468 89.0824 22.1428 89.9224 22.6468C90.7624 23.1508 91.7104 23.4028 92.7664 23.4028ZM112.922 27.7228C111.554 27.7228 110.366 27.4948 109.358 27.0388C108.35 26.5828 107.57 25.9348 107.018 25.0948C106.466 24.2308 106.19 23.2348 106.19 22.1068C106.19 21.0268 106.43 20.0668 106.91 19.2268C107.39 18.3628 108.134 17.6428 109.142 17.0668C110.15 16.4908 111.422 16.0828 112.958 15.8428L119.366 14.7988V18.3988L113.858 19.3348C112.922 19.5028 112.226 19.8028 111.77 20.2348C111.314 20.6668 111.086 21.2308 111.086 21.9268C111.086 22.5988 111.338 23.1388 111.842 23.5468C112.37 23.9308 113.018 24.1228 113.786 24.1228C114.77 24.1228 115.634 23.9188 116.378 23.5108C117.146 23.0788 117.734 22.4908 118.142 21.7468C118.574 21.0028 118.79 20.1868 118.79 19.2988V14.2588C118.79 13.4188 118.454 12.7228 117.782 12.1708C117.134 11.5948 116.27 11.3068 115.19 11.3068C114.182 11.3068 113.282 11.5828 112.49 12.1348C111.722 12.6628 111.158 13.3708 110.798 14.2588L106.946 12.3868C107.33 11.3548 107.93 10.4668 108.746 9.72277C109.586 8.95477 110.57 8.35477 111.698 7.92277C112.826 7.49077 114.05 7.27477 115.37 7.27477C116.978 7.27477 118.394 7.57477 119.618 8.17477C120.842 8.75077 121.79 9.56677 122.462 10.6228C123.158 11.6548 123.506 12.8668 123.506 14.2588V27.2908H119.042V23.9428L120.05 23.8708C119.546 24.7108 118.946 25.4188 118.25 25.9948C117.554 26.5468 116.762 26.9788 115.874 27.2908C114.986 27.5788 114.002 27.7228 112.922 27.7228ZM135.173 27.2908V20.3068H128.189V16.2388H135.173V9.29077H139.241V16.2388H146.189V20.3068H139.241V27.2908H135.173Z" fill="#191919"></path>
</svg>
