<?xml version="1.0" encoding="UTF-8"?>
<svg xmlns="http://www.w3.org/2000/svg" width="199" height="36" viewBox="0 0 199 36" fill="none">
  <path d="M3.714 27.2908V11.9188H0.258V7.70677H3.714V7.05877C3.714 5.57077 4.014 4.31077 4.614 3.27877C5.238 2.22277 6.102 1.41877 7.206 0.866771C8.31 0.31477 9.618 0.0387704 11.13 0.0387704C11.418 0.0387704 11.73 0.0627701 12.066 0.11077C12.426 0.134771 12.726 0.170771 12.966 0.21877V4.28677C12.726 4.23877 12.498 4.21477 12.282 4.21477C12.09 4.19077 11.91 4.17877 11.742 4.17877C10.686 4.17877 9.87 4.41877 9.294 4.89877C8.718 5.35477 8.43 6.07477 8.43 7.05877V7.70677H16.998V11.9188H8.43V27.2908H3.714ZM16.026 27.2908V0.0387704H20.778V27.2908H16.026ZM34.3573 27.7228C32.4373 27.7228 30.6853 27.2788 29.1013 26.3908C27.5413 25.5028 26.2933 24.2908 25.3573 22.7548C24.4453 21.2188 23.9893 19.4668 23.9893 17.4988C23.9893 15.5308 24.4453 13.7788 25.3573 12.2428C26.2933 10.7068 27.5413 9.49477 29.1013 8.60677C30.6613 7.71877 32.4133 7.27477 34.3573 7.27477C36.2773 7.27477 38.0173 7.71877 39.5773 8.60677C41.1373 9.49477 42.3733 10.7068 43.2853 12.2428C44.2213 13.7548 44.6893 15.5068 44.6893 17.4988C44.6893 19.4668 44.2213 21.2188 43.2853 22.7548C42.3493 24.2908 41.1013 25.5028 39.5413 26.3908C37.9813 27.2788 36.2533 27.7228 34.3573 27.7228ZM34.3573 23.4028C35.4133 23.4028 36.3373 23.1508 37.1293 22.6468C37.9453 22.1428 38.5813 21.4468 39.0373 20.5588C39.5173 19.6468 39.7573 18.6268 39.7573 17.4988C39.7573 16.3468 39.5173 15.3388 39.0373 14.4748C38.5813 13.5868 37.9453 12.8908 37.1293 12.3868C36.3373 11.8588 35.4133 11.5948 34.3573 11.5948C33.2773 11.5948 32.3293 11.8588 31.5133 12.3868C30.6973 12.8908 30.0493 13.5868 29.5693 14.4748C29.1133 15.3388 28.8853 16.3468 28.8853 17.4988C28.8853 18.6268 29.1133 19.6468 29.5693 20.5588C30.0493 21.4468 30.6973 22.1428 31.5133 22.6468C32.3293 23.1508 33.2773 23.4028 34.3573 23.4028ZM52.4861 27.2908L45.7541 7.70677H50.7221L55.6541 22.5748L53.9261 22.5388L59.1821 7.70677H63.3581L68.5781 22.5388L66.8501 22.5748L71.7821 7.70677H76.7501L70.0181 27.2908H65.8061L60.4781 11.7748H62.0621L56.6621 27.2908H52.4861ZM88.1278 35.2108C86.6638 35.2108 85.3078 34.9708 84.0598 34.4908C82.8118 34.0108 81.7318 33.3388 80.8198 32.4748C79.9318 31.6348 79.2838 30.6388 78.8758 29.4868L83.2678 27.8308C83.5558 28.7428 84.1198 29.4748 84.9598 30.0268C85.8238 30.6028 86.8798 30.8908 88.1278 30.8908C89.0878 30.8908 89.9278 30.7108 90.6478 30.3508C91.3918 29.9908 91.9678 29.4628 92.3758 28.7668C92.7838 28.0948 92.9878 27.2788 92.9878 26.3188V21.8548L93.8878 22.9348C93.2158 24.1108 92.3158 24.9988 91.1878 25.5988C90.0598 26.1988 88.7758 26.4988 87.3358 26.4988C85.5118 26.4988 83.8798 26.0788 82.4398 25.2388C80.9998 24.3988 79.8718 23.2468 79.0558 21.7828C78.2398 20.3188 77.8318 18.6748 77.8318 16.8508C77.8318 15.0028 78.2398 13.3588 79.0558 11.9188C79.8718 10.4788 80.9878 9.35077 82.4038 8.53477C83.8198 7.69477 85.4278 7.27477 87.2278 7.27477C88.6918 7.27477 89.9758 7.58677 91.0798 8.21077C92.2078 8.81077 93.1438 9.68677 93.8878 10.8388L93.2398 12.0268V7.70677H97.7038V26.3188C97.7038 28.0228 97.2838 29.5468 96.4438 30.8908C95.6278 32.2348 94.4998 33.2908 93.0598 34.0588C91.6438 34.8268 89.9998 35.2108 88.1278 35.2108ZM87.9118 22.1428C88.9198 22.1428 89.7958 21.9268 90.5398 21.4948C91.3078 21.0388 91.9078 20.4148 92.3398 19.6228C92.7718 18.8308 92.9878 17.9188 92.9878 16.8868C92.9878 15.8788 92.7598 14.9788 92.3038 14.1868C91.8718 13.3708 91.2718 12.7348 90.5038 12.2788C89.7598 11.8228 88.8958 11.5948 87.9118 11.5948C86.9278 11.5948 86.0398 11.8228 85.2478 12.2788C84.4558 12.7348 83.8318 13.3708 83.3758 14.1868C82.9438 14.9788 82.7278 15.8788 82.7278 16.8868C82.7278 17.8948 82.9438 18.7948 83.3758 19.5868C83.8318 20.3788 84.4438 21.0028 85.2118 21.4588C86.0038 21.9148 86.9038 22.1428 87.9118 22.1428ZM101.748 27.2908V7.70677H106.176V12.0628L105.816 11.4148C106.272 9.95077 106.98 8.93077 107.94 8.35477C108.924 7.77877 110.1 7.49077 111.468 7.49077H112.62V11.6668H110.928C109.584 11.6668 108.504 12.0868 107.688 12.9268C106.872 13.7428 106.464 14.8948 106.464 16.3828V27.2908H101.748ZM124.429 27.7228C122.509 27.7228 120.757 27.2788 119.173 26.3908C117.613 25.5028 116.365 24.2908 115.429 22.7548C114.517 21.2188 114.061 19.4668 114.061 17.4988C114.061 15.5308 114.517 13.7788 115.429 12.2428C116.365 10.7068 117.613 9.49477 119.173 8.60677C120.733 7.71877 122.485 7.27477 124.429 7.27477C126.349 7.27477 128.089 7.71877 129.649 8.60677C131.209 9.49477 132.445 10.7068 133.357 12.2428C134.293 13.7548 134.761 15.5068 134.761 17.4988C134.761 19.4668 134.293 21.2188 133.357 22.7548C132.421 24.2908 131.173 25.5028 129.613 26.3908C128.053 27.2788 126.325 27.7228 124.429 27.7228ZM124.429 23.4028C125.485 23.4028 126.409 23.1508 127.201 22.6468C128.017 22.1428 128.653 21.4468 129.109 20.5588C129.589 19.6468 129.829 18.6268 129.829 17.4988C129.829 16.3468 129.589 15.3388 129.109 14.4748C128.653 13.5868 128.017 12.8908 127.201 12.3868C126.409 11.8588 125.485 11.5948 124.429 11.5948C123.349 11.5948 122.401 11.8588 121.585 12.3868C120.769 12.8908 120.121 13.5868 119.641 14.4748C119.185 15.3388 118.957 16.3468 118.957 17.4988C118.957 18.6268 119.185 19.6468 119.641 20.5588C120.121 21.4468 120.769 22.1428 121.585 22.6468C122.401 23.1508 123.349 23.4028 124.429 23.4028ZM147.553 27.7228C145.633 27.7228 143.881 27.2788 142.297 26.3908C140.737 25.5028 139.489 24.2908 138.553 22.7548C137.641 21.2188 137.185 19.4668 137.185 17.4988C137.185 15.5308 137.641 13.7788 138.553 12.2428C139.489 10.7068 140.737 9.49477 142.297 8.60677C143.857 7.71877 145.609 7.27477 147.553 7.27477C149.473 7.27477 151.213 7.71877 152.773 8.60677C154.333 9.49477 155.569 10.7068 156.481 12.2428C157.417 13.7548 157.885 15.5068 157.885 17.4988C157.885 19.4668 157.417 21.2188 156.481 22.7548C155.545 24.2908 154.297 25.5028 152.737 26.3908C151.177 27.2788 149.449 27.7228 147.553 27.7228ZM147.553 23.4028C148.609 23.4028 149.533 23.1508 150.325 22.6468C151.141 22.1428 151.777 21.4468 152.233 20.5588C152.713 19.6468 152.953 18.6268 152.953 17.4988C152.953 16.3468 152.713 15.3388 152.233 14.4748C151.777 13.5868 151.141 12.8908 150.325 12.3868C149.533 11.8588 148.609 11.5948 147.553 11.5948C146.473 11.5948 145.525 11.8588 144.709 12.3868C143.893 12.8908 143.245 13.5868 142.765 14.4748C142.309 15.3388 142.081 16.3468 142.081 17.4988C142.081 18.6268 142.309 19.6468 142.765 20.5588C143.245 21.4468 143.893 22.1428 144.709 22.6468C145.525 23.1508 146.473 23.4028 147.553 23.4028ZM166.654 27.2908L158.95 7.70677H164.098L169.678 23.1148H167.77L173.386 7.70677H178.534L170.83 27.2908H166.654ZM189.717 27.7228C187.701 27.7228 185.937 27.2668 184.425 26.3548C182.913 25.4428 181.737 24.2068 180.897 22.6468C180.057 21.0868 179.637 19.3588 179.637 17.4628C179.637 15.4948 180.057 13.7548 180.897 12.2428C181.761 10.7068 182.925 9.49477 184.389 8.60677C185.877 7.71877 187.533 7.27477 189.357 7.27477C190.893 7.27477 192.237 7.52677 193.389 8.03077C194.565 8.53477 195.561 9.23077 196.377 10.1188C197.193 11.0068 197.817 12.0268 198.249 13.1788C198.681 14.3068 198.897 15.5308 198.897 16.8508C198.897 17.1868 198.873 17.5348 198.825 17.8948C198.801 18.2548 198.741 18.5668 198.645 18.8308H183.525V15.2308H195.981L193.749 16.9228C193.965 15.8188 193.905 14.8348 193.569 13.9708C193.257 13.1068 192.729 12.4228 191.985 11.9188C191.265 11.4148 190.389 11.1628 189.357 11.1628C188.373 11.1628 187.497 11.4148 186.729 11.9188C185.961 12.3988 185.373 13.1188 184.965 14.0788C184.581 15.0148 184.437 16.1548 184.533 17.4988C184.437 18.6988 184.593 19.7668 185.001 20.7028C185.433 21.6148 186.057 22.3228 186.873 22.8268C187.713 23.3308 188.673 23.5828 189.753 23.5828C190.833 23.5828 191.745 23.3548 192.489 22.8988C193.257 22.4428 193.857 21.8308 194.289 21.0628L198.105 22.9348C197.721 23.8708 197.121 24.6988 196.305 25.4188C195.489 26.1388 194.517 26.7028 193.389 27.1108C192.285 27.5188 191.061 27.7228 189.717 27.7228Z" fill="#191919"></path>
</svg>
