<?xml version="1.0" encoding="UTF-8"?>
<svg xmlns="http://www.w3.org/2000/svg" width="81" height="81" viewBox="0 0 81 81" fill="none">
  <rect x="0.5" y="0.310059" width="80" height="80" rx="40" fill="white"></rect>
  <path d="M47.7246 40.4351C47.7246 40.8335 47.625 41.2085 47.4258 41.5601C47.2383 41.8999 46.9688 42.1694 46.6172 42.3687L36.6328 48.5562C36.457 48.6616 36.2695 48.7378 36.0703 48.7847C35.8828 48.8433 35.6953 48.8726 35.5078 48.8726C35.3086 48.8726 35.1152 48.8433 34.9277 48.7847C34.7402 48.7378 34.5586 48.6675 34.3828 48.5737C34.0312 48.3745 33.7559 48.105 33.5566 47.7651C33.3691 47.4136 33.2754 47.0386 33.2754 46.6401V34.23C33.2754 33.8315 33.3691 33.4624 33.5566 33.1226C33.7559 32.771 34.0312 32.4956 34.3828 32.2964C34.7344 32.0972 35.1035 31.9976 35.4902 31.9976C35.8887 31.9976 36.2637 32.0972 36.6152 32.2964L46.6172 38.519C46.9688 38.7183 47.2383 38.9878 47.4258 39.3276C47.625 39.6675 47.7246 40.0366 47.7246 40.4351Z" fill="#191919"></path>
</svg>
