<?xml version="1.0" encoding="UTF-8"?>
<svg xmlns="http://www.w3.org/2000/svg" width="160" height="160" viewBox="0 0 160 160">
  <g id="Scroll_down" data-name="Scroll down" transform="translate(-705.5 -2301.956)">
    <g id="Layer_2" data-name="Layer 2" transform="translate(695.5 2485.956)">
      <g id="Circle" transform="translate(10 -184)">
        <circle id="Ellipse_22" data-name="Ellipse 22" cx="80" cy="80" r="80" fill="#191919"></circle>
        <path id="Path_6" data-name="Path 6" d="M97,27.84A4.23,4.23,0,0,1,95.46,27a3.92,3.92,0,0,1-1.4-3l1.64-.16a3.15,3.15,0,0,0,.58,1.59,2.52,2.52,0,0,0,1.31.93,2,2,0,0,0,.84.11,1.2,1.2,0,0,0,.64-.23,1.2,1.2,0,0,0,.38-1.31,1.79,1.79,0,0,0-.61-.67L97.2,23.1a3.58,3.58,0,0,1-1.34-1.55,2.59,2.59,0,0,1,0-1.8,2.71,2.71,0,0,1,.87-1.3,2.93,2.93,0,0,1,1.43-.61,4.14,4.14,0,0,1,1.75.18,4.29,4.29,0,0,1,1.46.8,3.87,3.87,0,0,1,1,1.22,3.56,3.56,0,0,1,.37,1.48l-1.64.17a2.33,2.33,0,0,0-.48-1.35,2.27,2.27,0,0,0-1.15-.81,2.14,2.14,0,0,0-.81-.1,1.29,1.29,0,0,0-.65.25,1.14,1.14,0,0,0-.38.55,1.08,1.08,0,0,0,0,.77,1.68,1.68,0,0,0,.62.71l1.56,1.1a4,4,0,0,1,1.36,1.56,2.47,2.47,0,0,1,.05,1.78,2.58,2.58,0,0,1-.88,1.29,2.85,2.85,0,0,1-1.46.6,4,4,0,0,1-1.88-.2Z" fill="#fff"></path>
        <path id="Path_7" data-name="Path 7" d="M104.45,30.9a3.72,3.72,0,0,1-1.72-5.08A3.83,3.83,0,0,1,104,24.31a3.66,3.66,0,0,1,1.81-.61A4,4,0,0,1,109,25a3.48,3.48,0,0,1,.7,1.18,2.82,2.82,0,0,1,.13,1.32l-1.67-.07a1.76,1.76,0,0,0-.21-1.09,1.83,1.83,0,0,0-.83-.77,1.91,1.91,0,0,0-1-.21,1.89,1.89,0,0,0-1,.38,2.7,2.7,0,0,0-1,2.02,1.89,1.89,0,0,0,1.08,1.71,1.84,1.84,0,0,0,1.12.18,2,2,0,0,0,1-.5l1.07,1.29a3,3,0,0,1-1.11.68,3.25,3.25,0,0,1-1.36.17,3.73,3.73,0,0,1-1.47-.39Z" fill="#fff"></path>
        <path id="Path_8" data-name="Path 8" d="M108.31,32.81l3.92-6.09,1.39.9L112.74,29v-.27a1.91,1.91,0,0,1,1.28-.53,2.46,2.46,0,0,1,1.26.44l.36.23-.84,1.31-.53-.34a1.61,1.61,0,0,0-1.25-.27,1.73,1.73,0,0,0-1.07.83l-2.18,3.39Z" fill="#fff"></path>
        <path id="Path_9" data-name="Path 9" d="M114.92,37.71a3.77,3.77,0,0,1-1.17-1.61,3.81,3.81,0,0,1-.22-1.92,3.74,3.74,0,0,1,.84-1.82A3.68,3.68,0,0,1,117.93,31a4.05,4.05,0,0,1,3,2.46,3.67,3.67,0,0,1,.21,1.91,3.74,3.74,0,0,1-.85,1.83,3.6,3.6,0,0,1-1.63,1.16,3.77,3.77,0,0,1-3.72-.69Zm1-1.23a2,2,0,0,0,1,.45,2.06,2.06,0,0,0,1-.15,2.46,2.46,0,0,0,.92-.7,2.37,2.37,0,0,0,.51-1,1.93,1.93,0,0,0,0-1,1.85,1.85,0,0,0-.63-.88,1.91,1.91,0,0,0-1-.45,1.93,1.93,0,0,0-1,.14,2.36,2.36,0,0,0-.92.7,2.43,2.43,0,0,0-.51,1,2,2,0,0,0,0,1.05,1.9,1.9,0,0,0,.64.84Z" fill="#fff"></path>
        <path id="Path_10" data-name="Path 10" d="M118.62,40.83l7.19-7L127,35l-7.19,7.06Z" fill="#fff"></path>
        <path id="Path_11" data-name="Path 11" d="M120.85,43.16l7.58-6.63,1.15,1.32L122,44.48Z" fill="#fff"></path>
        <path id="Path_12" data-name="Path 12" d="M124.44,47.34l8.38-5.28,1.73,2.74a5.56,5.56,0,0,1,.92,2.65,4.52,4.52,0,0,1-.51,2.46,5.52,5.52,0,0,1-4.35,2.74,4.52,4.52,0,0,1-2.45-.59,5.67,5.67,0,0,1-2-2Zm2.32.69.78,1.24a3.52,3.52,0,0,0,1.29,1.26,3,3,0,0,0,1.6.34,4,4,0,0,0,3-1.89,2.87,2.87,0,0,0,.37-1.59,3.5,3.5,0,0,0-.58-1.7l-.78-1.24Z" fill="#fff"></path>
        <path id="Path_13" data-name="Path 13" d="M130.51,58.62a3.85,3.85,0,0,1-.29-2,3.69,3.69,0,0,1,.69-1.8,3.822,3.822,0,0,1,6.86,2.8,3.65,3.65,0,0,1-.69,1.79,3.73,3.73,0,0,1-1.59,1.23,3.67,3.67,0,0,1-2,.28,3.82,3.82,0,0,1-3-2.33ZM132,58a1.87,1.87,0,0,0,1.66,1.2,2.46,2.46,0,0,0,1.14-.2,2.36,2.36,0,0,0,.92-.67,2,2,0,0,0-.37-2.87,1.91,1.91,0,0,0-1-.35,2.27,2.27,0,0,0-1.13.19,2.46,2.46,0,0,0-.94.68,2,2,0,0,0-.43,1A1.88,1.88,0,0,0,132,58Z" fill="#fff"></path>
        <path id="Path_14" data-name="Path 14" d="M132.91,64.59l6.5-4,.41,1.79-4.95,3-.13-.62,5.78.67.34,1.51L135.94,70l-.15-.62,5.76.56.41,1.79-7.61-.82L134,69.39l5.16-3.2.13.58-6-.68Z" fill="#fff"></path>
        <path id="Path_15" data-name="Path 15" d="M134.75,73.9l7.23-.39.09,1.65-1.42.08.24-.15a1.9,1.9,0,0,1,1,.78,2.68,2.68,0,0,1,.41,1.33,3,3,0,0,1-.27,1.43,2.49,2.49,0,0,1-.92,1,2.72,2.72,0,0,1-1.41.42l-4.64.25-.1-1.74,4.24-.22a1.79,1.79,0,0,0,.81-.23,1.28,1.28,0,0,0,.51-.55,1.67,1.67,0,0,0-.08-1.51,1.27,1.27,0,0,0-.56-.49,1.86,1.86,0,0,0-.84-.15l-4.23.23Z" fill="#fff"></path>
        <path id="Path_16" data-name="Path 16" d="M137.75,84.43l1.51.19-.7,5.61L137.05,90Z" fill="#fff"></path>
        <path id="Path_17" data-name="Path 17" d="M132.17,97a4.27,4.27,0,0,1,.86-1.55,4,4,0,0,1,1.34-1A3.93,3.93,0,0,1,136,94l.16,1.64a3.06,3.06,0,0,0-1.59.58,2.52,2.52,0,0,0-.93,1.31,2.09,2.09,0,0,0-.11.83,1.29,1.29,0,0,0,.23.65,1.1,1.1,0,0,0,.55.38,1,1,0,0,0,.77,0,1.74,1.74,0,0,0,.67-.6l1.16-1.62a3.58,3.58,0,0,1,1.55-1.34,2.53,2.53,0,0,1,1.8,0,2.69,2.69,0,0,1,1.3.86,2.84,2.84,0,0,1,.61,1.43,3.83,3.83,0,0,1-.18,1.75,4.17,4.17,0,0,1-.8,1.47,4,4,0,0,1-1.21.95,3.45,3.45,0,0,1-1.48.37l-.18-1.63a2.46,2.46,0,0,0,1.36-.48,2.28,2.28,0,0,0,.8-1.16,1.81,1.81,0,0,0,.1-.81,1.25,1.25,0,0,0-.25-.64,1.05,1.05,0,0,0-.54-.38,1.1,1.1,0,0,0-.78,0,1.76,1.76,0,0,0-.71.62l-1.1,1.56a3.84,3.84,0,0,1-1.55,1.37,2.47,2.47,0,0,1-1.78,0,2.65,2.65,0,0,1-1.3-.88,3,3,0,0,1-.6-1.46,4.14,4.14,0,0,1,.2-1.77Z" fill="#fff"></path>
        <path id="Path_18" data-name="Path 18" d="M129.12,104.41a3.72,3.72,0,0,1,5.08-1.72,3.68,3.68,0,0,1,1.51,1.29,3.62,3.62,0,0,1,.61,1.8,3.88,3.88,0,0,1-.42,2,3.83,3.83,0,0,1-.88,1.17,3.65,3.65,0,0,1-1.18.7,2.79,2.79,0,0,1-1.31.13l.06-1.67a1.83,1.83,0,0,0,1.09-.21,1.9,1.9,0,0,0,.78-.83,2,2,0,0,0,.2-1,1.89,1.89,0,0,0-.38-1,2.48,2.48,0,0,0-.9-.72,2.51,2.51,0,0,0-1.13-.28,1.89,1.89,0,0,0-1.7,1.08,1.85,1.85,0,0,0-.18,1.12,1.89,1.89,0,0,0,.51,1l-1.3,1.07a3,3,0,0,1-.68-1.1,3.3,3.3,0,0,1-.17-1.37A3.78,3.78,0,0,1,129.12,104.41Z" fill="#fff"></path>
        <path id="Path_19" data-name="Path 19" d="M127.21,108.28l6.09,3.91-.89,1.39-1.35-.87h.27a1.9,1.9,0,0,1,.52,1.28,2.44,2.44,0,0,1-.43,1.26l-.23.36-1.31-.84.34-.53a1.6,1.6,0,0,0,.27-1.25,1.79,1.79,0,0,0-.83-1.07l-3.39-2.18Z" fill="#fff"></path>
        <path id="Path_20" data-name="Path 20" d="M122.32,114.88a3.82,3.82,0,0,1,1.6-1.17,3.7,3.7,0,0,1,1.92-.21,3.63,3.63,0,0,1,1.83.83,3.73,3.73,0,0,1,1.17,1.64,3.8,3.8,0,0,1,.15,1.92,3.74,3.74,0,0,1-.85,1.8,3.79,3.79,0,0,1-1.61,1.19,3.89,3.89,0,0,1-1.91.21,3.74,3.74,0,0,1-1.83-.85,3.7,3.7,0,0,1-1.17-1.63,4,4,0,0,1-.15-1.93,3.84,3.84,0,0,1,.85-1.8Zm1.23,1a1.83,1.83,0,0,0-.45,1,1.88,1.88,0,0,0,.15,1,2.46,2.46,0,0,0,.7.92,2.49,2.49,0,0,0,1,.51,1.93,1.93,0,0,0,1-.06,1.83,1.83,0,0,0,.88-.62,1.9,1.9,0,0,0,.31-2,2.43,2.43,0,0,0-.7-.91,2.4,2.4,0,0,0-1-.52,2,2,0,0,0-1.06.06,1.93,1.93,0,0,0-.83.64Z" fill="#fff"></path>
        <path id="Path_21" data-name="Path 21" d="M119.19,118.59l7.07,7.18L125,127l-7.06-7.17Z" fill="#fff"></path>
        <path id="Path_22" data-name="Path 22" d="M116.87,120.82l6.63,7.58-1.32,1.15L115.55,122Z" fill="#fff"></path>
        <path id="Path_23" data-name="Path 23" d="M112.69,124.41l5.29,8.38-2.74,1.73a5.69,5.69,0,0,1-2.65.93,4.53,4.53,0,0,1-2.46-.52,5.48,5.48,0,0,1-2.74-4.35,4.48,4.48,0,0,1,.58-2.44,5.72,5.72,0,0,1,2-2Zm-.69,2.32-1.23.79a3.42,3.42,0,0,0-1.26,1.28,3.09,3.09,0,0,0-.35,1.61,3.75,3.75,0,0,0,.6,1.72,3.69,3.69,0,0,0,1.3,1.28,2.87,2.87,0,0,0,1.59.37,3.51,3.51,0,0,0,1.7-.59l1.24-.78Z" fill="#fff"></path>
        <path id="Path_24" data-name="Path 24" d="M101.42,130.5a3.73,3.73,0,0,1,2-.3,3.79,3.79,0,0,1,1.81.69,3.9,3.9,0,0,1,1.52,3.58,3.83,3.83,0,0,1-2.33,3,3.94,3.94,0,0,1-2,.31,3.82,3.82,0,0,1-1.79-.69,3.836,3.836,0,0,1-.77-5.36A3.83,3.83,0,0,1,101.42,130.5Zm.63,1.47a1.84,1.84,0,0,0-.85.66,2,2,0,0,0-.35,1,2.42,2.42,0,0,0,.2,1.14,2.39,2.39,0,0,0,.68.93,1.92,1.92,0,0,0,1,.43,2.06,2.06,0,0,0,1.91-.81,1.92,1.92,0,0,0,.36-1,2.4,2.4,0,0,0-.2-1.13,2.32,2.32,0,0,0-.68-.93,1.92,1.92,0,0,0-1-.44,1.8,1.8,0,0,0-1.07.18Z" fill="#fff"></path>
        <path id="Path_25" data-name="Path 25" d="M95.45,132.9l4,6.5-1.79.41-3-4.95.63-.13-.68,5.77-1.5.35-3.1-4.92.62-.15-.56,5.76-1.78.41.81-7.61,1.52-.35,3.19,5.16-.57.13.67-6Z" fill="#fff"></path>
        <path id="Path_26" data-name="Path 26" d="M86.15,134.75l.39,7.22-1.65.09-.08-1.42.15.25a1.92,1.92,0,0,1-.78,1,2.58,2.58,0,0,1-1.33.41,2.8,2.8,0,0,1-1.43-.27,2.55,2.55,0,0,1-1-.91,2.92,2.92,0,0,1-.42-1.41l-.25-4.65,1.74-.09.23,4.24a1.68,1.68,0,0,0,.23.81,1.32,1.32,0,0,0,.55.5,1.48,1.48,0,0,0,.76.15,1.51,1.51,0,0,0,.75-.23,1.22,1.22,0,0,0,.49-.56,1.67,1.67,0,0,0,.14-.83l-.23-4.24Z" fill="#fff"></path>
        <path id="Path_27" data-name="Path 27" d="M75.59,137.75l-.19,1.52-5.61-.7.19-1.52Z" fill="#fff"></path>
        <path id="Path_28" data-name="Path 28" d="M63.08,132.18a4.43,4.43,0,0,1,1.55.86,4,4,0,0,1,1.4,3l-1.65.15a3,3,0,0,0-.58-1.59,2.61,2.61,0,0,0-1.3-.93,2.14,2.14,0,0,0-.84-.1,1.24,1.24,0,0,0-.65.23,1.05,1.05,0,0,0-.38.55,1,1,0,0,0,0,.76,1.93,1.93,0,0,0,.6.67l1.63,1.16a3.67,3.67,0,0,1,1.34,1.56,2.56,2.56,0,0,1,0,1.79,2.64,2.64,0,0,1-.86,1.3,2.88,2.88,0,0,1-1.43.61,4,4,0,0,1-1.76-.17,4.39,4.39,0,0,1-1.46-.8,3.87,3.87,0,0,1-1-1.22,3.56,3.56,0,0,1-.37-1.48l1.64-.17a2.4,2.4,0,0,0,.48,1.35,2.3,2.3,0,0,0,1.16.81,2.07,2.07,0,0,0,.8.1,1.29,1.29,0,0,0,.65-.25,1.14,1.14,0,0,0,.38-.55,1.08,1.08,0,0,0,0-.77,1.68,1.68,0,0,0-.62-.71l-1.56-1.1A4,4,0,0,1,59,135.66a2.5,2.5,0,0,1-.05-1.77,2.61,2.61,0,0,1,.88-1.3,3,3,0,0,1,1.46-.61,4.14,4.14,0,0,1,1.79.2Z" fill="#fff"></path>
        <path id="Path_29" data-name="Path 29" d="M55.62,129.14a3.84,3.84,0,0,1,1.53,1.3,3.8,3.8,0,0,1,.61,1.82,4.06,4.06,0,0,1-1.7,3.47,3.59,3.59,0,0,1-1.8.61,3.9,3.9,0,0,1-2-.42,3.83,3.83,0,0,1-1.17-.88,3.65,3.65,0,0,1-.7-1.18,2.79,2.79,0,0,1-.13-1.31l1.67.07a1.86,1.86,0,0,0,.21,1.09,1.94,1.94,0,0,0,.83.77,2,2,0,0,0,1,.2,1.86,1.86,0,0,0,1-.38,2.62,2.62,0,0,0,1-2,1.883,1.883,0,0,0-3.2-1.37l-1.06-1.3a2.88,2.88,0,0,1,1.1-.68,3.25,3.25,0,0,1,1.36-.17A3.73,3.73,0,0,1,55.62,129.14Z" fill="#fff"></path>
        <path id="Path_30" data-name="Path 30" d="M51.76,127.24l-3.91,6.09-1.39-.89.87-1.36v.27a1.91,1.91,0,0,1-1.28.53,2.54,2.54,0,0,1-1.26-.43l-.36-.23.84-1.31.52.33a1.64,1.64,0,0,0,1.26.27,1.76,1.76,0,0,0,1.07-.83l2.17-3.39Z" fill="#fff"></path>
        <path id="Path_31" data-name="Path 31" d="M45.15,122.34A3.85,3.85,0,0,1,46.32,124a3.81,3.81,0,0,1,.22,1.92,3.65,3.65,0,0,1-.84,1.82,3.5,3.5,0,0,1-1.63,1.17,3.8,3.8,0,0,1-3.73-.69,3.78,3.78,0,1,1,4.81-5.83Zm-1,1.24a1.8,1.8,0,0,0-1-.45,1.9,1.9,0,0,0-1,.15,2.43,2.43,0,0,0-.91.7,2.27,2.27,0,0,0-.51,1,1.93,1.93,0,0,0,.05,1,1.9,1.9,0,0,0,.63.88,1.869,1.869,0,0,0,2,.3,2.37,2.37,0,0,0,.91-.69,2.53,2.53,0,0,0,.51-1,1.86,1.86,0,0,0-.68-1.92Z" fill="#fff"></path>
        <path id="Path_32" data-name="Path 32" d="M41.42,119.21l-7.17,7.06L33,125l7.19-7Z" fill="#fff"></path>
        <path id="Path_33" data-name="Path 33" d="M39.21,116.9l-7.57,6.64-1.16-1.32,7.57-6.64Z" fill="#fff"></path>
        <path id="Path_34" data-name="Path 34" d="M35.61,112.73,27.24,118l-1.74-2.74a5.74,5.74,0,0,1-.92-2.65,4.52,4.52,0,0,1,.51-2.46,5.12,5.12,0,0,1,1.83-1.91,5.19,5.19,0,0,1,2.52-.83,4.48,4.48,0,0,1,2.44.58,5.69,5.69,0,0,1,2,2ZM33.29,112l-.78-1.24a3.41,3.41,0,0,0-1.29-1.25,3,3,0,0,0-1.61-.35,4,4,0,0,0-3,1.9,2.88,2.88,0,0,0-.36,1.6,3.5,3.5,0,0,0,.58,1.69l.78,1.24Z" fill="#fff"></path>
        <path id="Path_35" data-name="Path 35" d="M29.52,101.46a3.84,3.84,0,0,1-.39,3.77,4,4,0,0,1-3.58,1.52,3.89,3.89,0,0,1-2.6-6.1,4,4,0,0,1,3.58-1.52,3.82,3.82,0,0,1,3,2.33Zm-1.47.63a1.92,1.92,0,0,0-.67-.85,1.85,1.85,0,0,0-1-.35,2.4,2.4,0,0,0-1.13.2,2.35,2.35,0,0,0-.93.68,2,2,0,0,0-.43,1,2.06,2.06,0,0,0,.81,1.91,1.92,1.92,0,0,0,1,.36,2.4,2.4,0,0,0,1.13-.2,2.5,2.5,0,0,0,.93-.68,1.92,1.92,0,0,0,.44-1,2,2,0,0,0-.15-1.07Z" fill="#fff"></path>
        <path id="Path_36" data-name="Path 36" d="M27.11,95.49l-6.49,4-.41-1.78,4.94-3,.13.63-5.77-.67-.35-1.5,4.91-3.11.16.62-5.76-.55-.41-1.79,7.61.81L26,90.7l-5.14,3.2-.13-.57,6,.66Z" fill="#fff"></path>
        <path id="Path_37" data-name="Path 37" d="M25.25,86.19l-7.22.4-.09-1.65,1.42-.08-.24.15a2,2,0,0,1-1-.78,2.58,2.58,0,0,1-.41-1.33,2.8,2.8,0,0,1,.27-1.43,2.49,2.49,0,0,1,.91-1A2.92,2.92,0,0,1,20.26,80l4.64-.25.1,1.74-4.24.23A1.68,1.68,0,0,0,20,82a1.32,1.32,0,0,0-.5.55,1.46,1.46,0,0,0-.15.76,1.51,1.51,0,0,0,.23.75,1.33,1.33,0,0,0,.56.49,1.69,1.69,0,0,0,.83.14l4.24-.23Z" fill="#fff"></path>
        <path id="Path_38" data-name="Path 38" d="M22.25,75.64l-1.52-.19.69-5.61,1.52.19Z" fill="#fff"></path>
        <path id="Path_39" data-name="Path 39" d="M27.81,63.12A4.43,4.43,0,0,1,27,64.67a4,4,0,0,1-3,1.4l-.16-1.64a3.08,3.08,0,0,0,1.59-.58,2.56,2.56,0,0,0,.93-1.31,2.16,2.16,0,0,0,.11-.84,1.33,1.33,0,0,0-.23-.65,1.1,1.1,0,0,0-.55-.38,1,1,0,0,0-.77,0,1.82,1.82,0,0,0-.66.6L23.09,62.9a3.58,3.58,0,0,1-1.55,1.34,2.56,2.56,0,0,1-1.79,0,2.67,2.67,0,0,1-1.31-.87A2.89,2.89,0,0,1,17.8,62a3.85,3.85,0,0,1,.2-1.73,4.37,4.37,0,0,1,.79-1.46,3.87,3.87,0,0,1,1.22-1,3.56,3.56,0,0,1,1.48-.37l.18,1.63a2.4,2.4,0,0,0-1.36.48,2.32,2.32,0,0,0-.8,1.16,2,2,0,0,0-.1.81,1.29,1.29,0,0,0,.25.65,1.12,1.12,0,0,0,.55.37,1,1,0,0,0,.77,0,1.76,1.76,0,0,0,.71-.62l1.1-1.57A3.8,3.8,0,0,1,24.32,59a2.47,2.47,0,0,1,1.78-.06,2.72,2.72,0,0,1,1.3.88,3,3,0,0,1,.6,1.46A4.13,4.13,0,0,1,27.81,63.12Z" fill="#fff"></path>
        <path id="Path_40" data-name="Path 40" d="M30.84,55.66a3.83,3.83,0,0,1-1.3,1.53,3.76,3.76,0,0,1-1.81.61,3.82,3.82,0,0,1-2-.4,3.77,3.77,0,0,1-1.51-1.3,3.6,3.6,0,0,1-.62-1.8,3.85,3.85,0,0,1,.42-2,3.61,3.61,0,0,1,.88-1.17,3.51,3.51,0,0,1,1.18-.71,2.78,2.78,0,0,1,1.31-.13L27.36,52a1.86,1.86,0,0,0-1.09.21,1.94,1.94,0,0,0-.77.83,2,2,0,0,0-.2,1,1.79,1.79,0,0,0,.39,1,2.48,2.48,0,0,0,.89.73,2.67,2.67,0,0,0,1.13.27,2,2,0,0,0,1-.29,1.92,1.92,0,0,0,.7-.79,1.86,1.86,0,0,0,.18-1.12,2,2,0,0,0-.51-1l1.3-1.07a3,3,0,0,1,.68,1.11,3.42,3.42,0,0,1,.18,1.36,3.94,3.94,0,0,1-.4,1.42Z" fill="#fff"></path>
        <path id="Path_41" data-name="Path 41" d="M32.74,51.8l-6.09-3.91.89-1.39,1.35.87h-.27a1.86,1.86,0,0,1-.52-1.27,2.41,2.41,0,0,1,.43-1.27l.23-.35,1.31.84-.34.52a1.62,1.62,0,0,0-.27,1.25,1.72,1.72,0,0,0,.84,1.07l3.39,2.18Z" fill="#fff"></path>
        <path id="Path_42" data-name="Path 42" d="M37.63,45.18a3.83,3.83,0,0,1-3.52,1.39,3.63,3.63,0,0,1-1.83-.83,3.67,3.67,0,0,1-1.17-1.64A3.79,3.79,0,0,1,31,42.18a3.84,3.84,0,0,1,.85-1.8A3.77,3.77,0,0,1,35.32,39a3.91,3.91,0,0,1,3,2.48,3.79,3.79,0,0,1,.16,1.92,3.93,3.93,0,0,1-.85,1.78Zm-1.23-1a1.84,1.84,0,0,0,.29-2,2.33,2.33,0,0,0-.7-.91,2.27,2.27,0,0,0-1-.51,1.848,1.848,0,0,0-1.88.68,1.85,1.85,0,0,0-.44,1,2,2,0,0,0,.14,1,2.33,2.33,0,0,0,.7.91,2.22,2.22,0,0,0,1,.51,2,2,0,0,0,1.05-.05,1.9,1.9,0,0,0,.84-.64Z" fill="#fff"></path>
        <path id="Path_43" data-name="Path 43" d="M40.76,41.45l-7.07-7.17,1.25-1.23L42,40.22Z" fill="#fff"></path>
        <path id="Path_44" data-name="Path 44" d="M43.07,39.24l-6.65-7.57,1.32-1.16,6.65,7.57Z" fill="#fff"></path>
        <path id="Path_45" data-name="Path 45" d="M47.24,35.64l-5.3-8.37,2.74-1.74a5.61,5.61,0,0,1,2.65-.93,4.47,4.47,0,0,1,2.45.51,5.15,5.15,0,0,1,1.92,1.83,5.32,5.32,0,0,1,.84,2.52A4.48,4.48,0,0,1,52,31.9a5.61,5.61,0,0,1-2,2Zm.69-2.33,1.23-.78a3.52,3.52,0,0,0,1.26-1.29,3,3,0,0,0,.34-1.6,3.71,3.71,0,0,0-.6-1.72,3.6,3.6,0,0,0-1.3-1.28,2.89,2.89,0,0,0-1.6-.37,3.51,3.51,0,0,0-1.69.59l-1.24.78Z" fill="#fff"></path>
        <path id="Path_46" data-name="Path 46" d="M58.5,29.53a3.83,3.83,0,0,1-2,.31,3.93,3.93,0,0,1-1.81-.69,3.64,3.64,0,0,1-1.23-1.59,3.58,3.58,0,0,1-.29-2A3.81,3.81,0,0,1,54,23.79a4.08,4.08,0,0,1,3.56-1.51,3.84,3.84,0,0,1,3.31,4.27,3.91,3.91,0,0,1-.75,1.78,3.81,3.81,0,0,1-1.62,1.2Zm-.63-1.46a2,2,0,0,0,.86-.67,2.09,2.09,0,0,0,.34-1,2.44,2.44,0,0,0-.2-1.14,2.38,2.38,0,0,0-.68-.92,2,2,0,0,0-.95-.44,2.13,2.13,0,0,0-1.92.82,2,2,0,0,0-.35,1,2.42,2.42,0,0,0,.2,1.13,2.39,2.39,0,0,0,.68.93,1.919,1.919,0,0,0,2.02.29Z" fill="#fff"></path>
        <path id="Path_47" data-name="Path 47" d="M64.46,27.12l-4-6.49,1.79-.41,3,4.94-.62.13.66-5.77,1.51-.35,3.11,4.91-.62.16.54-5.76,1.79-.42-.8,7.61L69.26,26l-3.2-5.14.57-.13-.66,6Z" fill="#fff"></path>
        <path id="Path_48" data-name="Path 48" d="M73.77,25.26,73.37,18l1.64-.1.08,1.43-.15-.25a1.93,1.93,0,0,1,.78-1,2.59,2.59,0,0,1,1.33-.42,2.8,2.8,0,0,1,1.43.27,2.49,2.49,0,0,1,1,.91,2.92,2.92,0,0,1,.42,1.41l.26,4.64-1.74.1-.23-4.24A1.75,1.75,0,0,0,78,20a1.3,1.3,0,0,0-.54-.5,1.52,1.52,0,0,0-.77-.14,1.57,1.57,0,0,0-.75.22,1.48,1.48,0,0,0-.49.56,1.86,1.86,0,0,0-.14.84l.24,4.23Z" fill="#fff"></path>
        <path id="Path_49" data-name="Path 49" d="M84.32,22.24l.18-1.51,5.61.68-.18,1.52Z" fill="#fff"></path>
      </g>
    </g>
    <path id="Star" d="M97,161.594h0a15.954,15.954,0,0,0-16-15.758,15.976,15.976,0,0,0,11.308-4.644A15.649,15.649,0,0,0,97,130a15.65,15.65,0,0,0,4.692,11.193A15.974,15.974,0,0,0,113,145.837,15.955,15.955,0,0,0,97,161.594Z" transform="translate(688.5 2236.159)" fill="#fff"></path>
  </g>
</svg>
